<?xml version="1.0" encoding="UTF-8" standalone="no"?>
<!DOCTYPE svg PUBLIC "-//W3C//DTD SVG 1.1//EN"
 "http://www.w3.org/Graphics/SVG/1.1/DTD/svg11.dtd">
<!-- Generated by graphviz version 2.38.0 (20140413.2041)
 -->
<!-- Title: controllers_diagram Pages: 1 -->
<svg width="512pt" height="653pt"
 viewBox="0.00 0.00 511.53 653.00" xmlns="http://www.w3.org/2000/svg" xmlns:xlink="http://www.w3.org/1999/xlink">
<g id="graph0" class="graph" transform="scale(1 1) rotate(0) translate(255.821 379.5)">
<title>controllers_diagram</title>
<polygon fill="white" stroke="none" points="-255.821,273.5 -255.821,-379.5 255.707,-379.5 255.707,273.5 -255.821,273.5"/>
<!-- _diagram_info -->
<g id="node1" class="node"><title>_diagram_info</title>
<text text-anchor="start" x="-207.688" y="156.9" font-family="Times,serif" font-size="13.00">Controllers diagram</text>
<text text-anchor="start" x="-207.688" y="169.9" font-family="Times,serif" font-size="13.00">Date: Jan 25 2015 &#45; 20:17</text>
<text text-anchor="start" x="-207.688" y="182.9" font-family="Times,serif" font-size="13.00">Migration version: 20150126035550</text>
<text text-anchor="start" x="-207.688" y="195.9" font-family="Times,serif" font-size="13.00">Generated by RailRoady 1.3.0</text>
<text text-anchor="start" x="-207.688" y="208.9" font-family="Times,serif" font-size="13.00">http://railroady.prestonlee.com</text>
</g>
<!-- ApplicationController -->
<g id="node2" class="node"><title>ApplicationController</title>
<path fill="none" stroke="black" d="M-239.821,-37C-239.821,-37 -124.179,-37 -124.179,-37 -118.179,-37 -112.179,-43 -112.179,-49 -112.179,-49 -112.179,-117 -112.179,-117 -112.179,-123 -118.179,-129 -124.179,-129 -124.179,-129 -239.821,-129 -239.821,-129 -245.821,-129 -251.821,-123 -251.821,-117 -251.821,-117 -251.821,-49 -251.821,-49 -251.821,-43 -245.821,-37 -239.821,-37"/>
<text text-anchor="middle" x="-182" y="-113.8" font-family="Times,serif" font-size="14.00">ApplicationController</text>
<polyline fill="none" stroke="black" points="-251.821,-107 -112.179,-107 "/>
<polyline fill="none" stroke="black" points="-251.821,-83 -112.179,-83 "/>
<polyline fill="none" stroke="black" points="-251.821,-59 -112.179,-59 "/>
<text text-anchor="start" x="-243.821" y="-43.8" font-family="Times,serif" font-size="14.00">_layout</text>
</g>
<!-- BookBagsController -->
<g id="node3" class="node"><title>BookBagsController</title>
<path fill="none" stroke="black" d="M-59.9414,107C-59.9414,107 47.9414,107 47.9414,107 53.9414,107 59.9414,101 59.9414,95 59.9414,95 59.9414,-97 59.9414,-97 59.9414,-103 53.9414,-109 47.9414,-109 47.9414,-109 -59.9414,-109 -59.9414,-109 -65.9414,-109 -71.9414,-103 -71.9414,-97 -71.9414,-97 -71.9414,95 -71.9414,95 -71.9414,101 -65.9414,107 -59.9414,107"/>
<text text-anchor="middle" x="-6" y="-93.8" font-family="Times,serif" font-size="14.00">BookBagsController</text>
<polyline fill="none" stroke="black" points="-71.9414,-87 59.9414,-87 "/>
<text text-anchor="start" x="-63.9414" y="-71.8" font-family="Times,serif" font-size="14.00">create</text>
<text text-anchor="start" x="-63.9414" y="-57.8" font-family="Times,serif" font-size="14.00">destroy</text>
<text text-anchor="start" x="-63.9414" y="-43.8" font-family="Times,serif" font-size="14.00">edit</text>
<text text-anchor="start" x="-63.9414" y="-29.8" font-family="Times,serif" font-size="14.00">index</text>
<text text-anchor="start" x="-63.9414" y="-15.8" font-family="Times,serif" font-size="14.00">new</text>
<text text-anchor="start" x="-63.9414" y="-1.8" font-family="Times,serif" font-size="14.00">show</text>
<text text-anchor="start" x="-63.9414" y="12.2" font-family="Times,serif" font-size="14.00">update</text>
<polyline fill="none" stroke="black" points="-71.9414,19 59.9414,19 "/>
<polyline fill="none" stroke="black" points="-71.9414,43 59.9414,43 "/>
<text text-anchor="start" x="-63.9414" y="58.2" font-family="Times,serif" font-size="14.00">_layout</text>
<text text-anchor="start" x="-63.9414" y="72.2" font-family="Times,serif" font-size="14.00">book_bag_params</text>
<text text-anchor="start" x="-63.9414" y="86.2" font-family="Times,serif" font-size="14.00">set_book_bag</text>
<text text-anchor="start" x="-63.9414" y="100.2" font-family="Times,serif" font-size="14.00">set_classroom</text>
</g>
<!-- ClassroomsController -->
<g id="node4" class="node"><title>ClassroomsController</title>
<path fill="none" stroke="black" d="M101.559,89C101.559,89 216.441,89 216.441,89 222.441,89 228.441,83 228.441,77 228.441,77 228.441,-101 228.441,-101 228.441,-107 222.441,-113 216.441,-113 216.441,-113 101.559,-113 101.559,-113 95.5586,-113 89.5586,-107 89.5586,-101 89.5586,-101 89.5586,77 89.5586,77 89.5586,83 95.5586,89 101.559,89"/>
<text text-anchor="middle" x="159" y="-97.8" font-family="Times,serif" font-size="14.00">ClassroomsController</text>
<polyline fill="none" stroke="black" points="89.5586,-91 228.441,-91 "/>
<text text-anchor="start" x="97.5586" y="-75.8" font-family="Times,serif" font-size="14.00">create</text>
<text text-anchor="start" x="97.5586" y="-61.8" font-family="Times,serif" font-size="14.00">destroy</text>
<text text-anchor="start" x="97.5586" y="-47.8" font-family="Times,serif" font-size="14.00">edit</text>
<text text-anchor="start" x="97.5586" y="-33.8" font-family="Times,serif" font-size="14.00">index</text>
<text text-anchor="start" x="97.5586" y="-19.8" font-family="Times,serif" font-size="14.00">new</text>
<text text-anchor="start" x="97.5586" y="-5.8" font-family="Times,serif" font-size="14.00">show</text>
<text text-anchor="start" x="97.5586" y="8.2" font-family="Times,serif" font-size="14.00">update</text>
<polyline fill="none" stroke="black" points="89.5586,15 228.441,15 "/>
<polyline fill="none" stroke="black" points="89.5586,39 228.441,39 "/>
<text text-anchor="start" x="97.5586" y="54.2" font-family="Times,serif" font-size="14.00">_layout</text>
<text text-anchor="start" x="97.5586" y="68.2" font-family="Times,serif" font-size="14.00">classroom_params</text>
<text text-anchor="start" x="97.5586" y="82.2" font-family="Times,serif" font-size="14.00">set_classroom</text>
</g>
<!-- HomeController -->
<g id="node5" class="node"><title>HomeController</title>
<path fill="none" stroke="black" d="M-203.879,89C-203.879,89 -120.121,89 -120.121,89 -114.121,89 -108.121,83 -108.121,77 -108.121,77 -108.121,11 -108.121,11 -108.121,5 -114.121,-1 -120.121,-1 -120.121,-1 -203.879,-1 -203.879,-1 -209.879,-1 -215.879,5 -215.879,11 -215.879,11 -215.879,77 -215.879,77 -215.879,83 -209.879,89 -203.879,89"/>
<text text-anchor="middle" x="-162" y="14.2" font-family="Times,serif" font-size="14.00">HomeController</text>
<polyline fill="none" stroke="black" points="-215.879,21 -108.121,21 "/>
<text text-anchor="start" x="-207.879" y="36.2" font-family="Times,serif" font-size="14.00">index</text>
<polyline fill="none" stroke="black" points="-215.879,43 -108.121,43 "/>
<polyline fill="none" stroke="black" points="-215.879,67 -108.121,67 "/>
<text text-anchor="start" x="-207.879" y="82.2" font-family="Times,serif" font-size="14.00">_layout</text>
</g>
<!-- InventoryStatesController -->
<g id="node6" class="node"><title>InventoryStatesController</title>
<path fill="none" stroke="black" d="M102.293,269C102.293,269 239.707,269 239.707,269 245.707,269 251.707,263 251.707,257 251.707,257 251.707,135 251.707,135 251.707,129 245.707,123 239.707,123 239.707,123 102.293,123 102.293,123 96.293,123 90.293,129 90.293,135 90.293,135 90.293,257 90.293,257 90.293,263 96.293,269 102.293,269"/>
<text text-anchor="middle" x="171" y="138.2" font-family="Times,serif" font-size="14.00">InventoryStatesController</text>
<polyline fill="none" stroke="black" points="90.293,145 251.707,145 "/>
<text text-anchor="start" x="98.293" y="160.2" font-family="Times,serif" font-size="14.00">create</text>
<text text-anchor="start" x="98.293" y="174.2" font-family="Times,serif" font-size="14.00">destroy</text>
<text text-anchor="start" x="98.293" y="188.2" font-family="Times,serif" font-size="14.00">new</text>
<polyline fill="none" stroke="black" points="90.293,195 251.707,195 "/>
<polyline fill="none" stroke="black" points="90.293,219 251.707,219 "/>
<text text-anchor="start" x="98.293" y="234.2" font-family="Times,serif" font-size="14.00">_layout</text>
<text text-anchor="start" x="98.293" y="248.2" font-family="Times,serif" font-size="14.00">find_classroom</text>
<text text-anchor="start" x="98.293" y="262.2" font-family="Times,serif" font-size="14.00">find_inventory_state</text>
</g>
<!-- PlansController -->
<g id="node7" class="node"><title>PlansController</title>
<path fill="none" stroke="black" d="M156.059,-145C156.059,-145 235.941,-145 235.941,-145 241.941,-145 247.941,-151 247.941,-157 247.941,-157 247.941,-363 247.941,-363 247.941,-369 241.941,-375 235.941,-375 235.941,-375 156.059,-375 156.059,-375 150.059,-375 144.059,-369 144.059,-363 144.059,-363 144.059,-157 144.059,-157 144.059,-151 150.059,-145 156.059,-145"/>
<text text-anchor="middle" x="196" y="-359.8" font-family="Times,serif" font-size="14.00">PlansController</text>
<polyline fill="none" stroke="black" points="144.059,-353 247.941,-353 "/>
<text text-anchor="start" x="152.059" y="-337.8" font-family="Times,serif" font-size="14.00">create</text>
<text text-anchor="start" x="152.059" y="-323.8" font-family="Times,serif" font-size="14.00">destroy</text>
<text text-anchor="start" x="152.059" y="-309.8" font-family="Times,serif" font-size="14.00">edit</text>
<text text-anchor="start" x="152.059" y="-295.8" font-family="Times,serif" font-size="14.00">index</text>
<text text-anchor="start" x="152.059" y="-281.8" font-family="Times,serif" font-size="14.00">new</text>
<text text-anchor="start" x="152.059" y="-267.8" font-family="Times,serif" font-size="14.00">no_plan_found</text>
<text text-anchor="start" x="152.059" y="-253.8" font-family="Times,serif" font-size="14.00">show</text>
<text text-anchor="start" x="152.059" y="-239.8" font-family="Times,serif" font-size="14.00">update</text>
<polyline fill="none" stroke="black" points="144.059,-233 247.941,-233 "/>
<polyline fill="none" stroke="black" points="144.059,-209 247.941,-209 "/>
<text text-anchor="start" x="152.059" y="-193.8" font-family="Times,serif" font-size="14.00">_layout</text>
<text text-anchor="start" x="152.059" y="-179.8" font-family="Times,serif" font-size="14.00">plan_params</text>
<text text-anchor="start" x="152.059" y="-165.8" font-family="Times,serif" font-size="14.00">set_classroom</text>
<text text-anchor="start" x="152.059" y="-151.8" font-family="Times,serif" font-size="14.00">set_plan</text>
</g>
<!-- SchoolsController -->
<g id="node8" class="node"><title>SchoolsController</title>
<path fill="none" stroke="black" d="M-149.941,-163C-149.941,-163 -56.0586,-163 -56.0586,-163 -50.0586,-163 -44.0586,-169 -44.0586,-175 -44.0586,-175 -44.0586,-353 -44.0586,-353 -44.0586,-359 -50.0586,-365 -56.0586,-365 -56.0586,-365 -149.941,-365 -149.941,-365 -155.941,-365 -161.941,-359 -161.941,-353 -161.941,-353 -161.941,-175 -161.941,-175 -161.941,-169 -155.941,-163 -149.941,-163"/>
<text text-anchor="middle" x="-103" y="-349.8" font-family="Times,serif" font-size="14.00">SchoolsController</text>
<polyline fill="none" stroke="black" points="-161.941,-343 -44.0586,-343 "/>
<text text-anchor="start" x="-153.941" y="-327.8" font-family="Times,serif" font-size="14.00">create</text>
<text text-anchor="start" x="-153.941" y="-313.8" font-family="Times,serif" font-size="14.00">destroy</text>
<text text-anchor="start" x="-153.941" y="-299.8" font-family="Times,serif" font-size="14.00">edit</text>
<text text-anchor="start" x="-153.941" y="-285.8" font-family="Times,serif" font-size="14.00">index</text>
<text text-anchor="start" x="-153.941" y="-271.8" font-family="Times,serif" font-size="14.00">new</text>
<text text-anchor="start" x="-153.941" y="-257.8" font-family="Times,serif" font-size="14.00">show</text>
<text text-anchor="start" x="-153.941" y="-243.8" font-family="Times,serif" font-size="14.00">update</text>
<polyline fill="none" stroke="black" points="-161.941,-237 -44.0586,-237 "/>
<polyline fill="none" stroke="black" points="-161.941,-213 -44.0586,-213 "/>
<text text-anchor="start" x="-153.941" y="-197.8" font-family="Times,serif" font-size="14.00">_layout</text>
<text text-anchor="start" x="-153.941" y="-183.8" font-family="Times,serif" font-size="14.00">school_params</text>
<text text-anchor="start" x="-153.941" y="-169.8" font-family="Times,serif" font-size="14.00">set_school</text>
</g>
<!-- StudentsController -->
<g id="node9" class="node"><title>StudentsController</title>
<path fill="none" stroke="black" d="M-5.88623,-145C-5.88623,-145 91.8862,-145 91.8862,-145 97.8862,-145 103.886,-151 103.886,-157 103.886,-157 103.886,-349 103.886,-349 103.886,-355 97.8862,-361 91.8862,-361 91.8862,-361 -5.88623,-361 -5.88623,-361 -11.8862,-361 -17.8862,-355 -17.8862,-349 -17.8862,-349 -17.8862,-157 -17.8862,-157 -17.8862,-151 -11.8862,-145 -5.88623,-145"/>
<text text-anchor="middle" x="43" y="-345.8" font-family="Times,serif" font-size="14.00">StudentsController</text>
<polyline fill="none" stroke="black" points="-17.8862,-339 103.886,-339 "/>
<text text-anchor="start" x="-9.88623" y="-323.8" font-family="Times,serif" font-size="14.00">create</text>
<text text-anchor="start" x="-9.88623" y="-309.8" font-family="Times,serif" font-size="14.00">destroy</text>
<text text-anchor="start" x="-9.88623" y="-295.8" font-family="Times,serif" font-size="14.00">edit</text>
<text text-anchor="start" x="-9.88623" y="-281.8" font-family="Times,serif" font-size="14.00">index</text>
<text text-anchor="start" x="-9.88623" y="-267.8" font-family="Times,serif" font-size="14.00">new</text>
<text text-anchor="start" x="-9.88623" y="-253.8" font-family="Times,serif" font-size="14.00">show</text>
<text text-anchor="start" x="-9.88623" y="-239.8" font-family="Times,serif" font-size="14.00">update</text>
<polyline fill="none" stroke="black" points="-17.8862,-233 103.886,-233 "/>
<polyline fill="none" stroke="black" points="-17.8862,-209 103.886,-209 "/>
<text text-anchor="start" x="-9.88623" y="-193.8" font-family="Times,serif" font-size="14.00">_layout</text>
<text text-anchor="start" x="-9.88623" y="-179.8" font-family="Times,serif" font-size="14.00">set_classroom</text>
<text text-anchor="start" x="-9.88623" y="-165.8" font-family="Times,serif" font-size="14.00">set_student</text>
<text text-anchor="start" x="-9.88623" y="-151.8" font-family="Times,serif" font-size="14.00">student_params</text>
</g>
</g>
</svg>
