<?xml version="1.0" encoding="UTF-8" standalone="no"?>
<!DOCTYPE svg PUBLIC "-//W3C//DTD SVG 1.1//EN"
 "http://www.w3.org/Graphics/SVG/1.1/DTD/svg11.dtd">
<!-- Generated by graphviz version 2.38.0 (20140413.2041)
 -->
<!-- Title: controllers_diagram Pages: 1 -->
<svg width="612pt" height="602pt"
 viewBox="0.00 0.00 611.65 602.00" xmlns="http://www.w3.org/2000/svg" xmlns:xlink="http://www.w3.org/1999/xlink">
<g id="graph0" class="graph" transform="scale(1 1) rotate(0) translate(224.941 394.5)">
<title>controllers_diagram</title>
<polygon fill="white" stroke="none" points="-224.941,207.5 -224.941,-394.5 386.707,-394.5 386.707,207.5 -224.941,207.5"/>
<!-- _diagram_info -->
<g id="node1" class="node"><title>_diagram_info</title>
<text text-anchor="start" x="76.3123" y="110.9" font-family="Times,serif" font-size="13.00">Controllers diagram</text>
<text text-anchor="start" x="76.3123" y="123.9" font-family="Times,serif" font-size="13.00">Date: Jan 08 2015 &#45; 16:50</text>
<text text-anchor="start" x="76.3123" y="136.9" font-family="Times,serif" font-size="13.00">Migration version: 20150104031619</text>
<text text-anchor="start" x="76.3123" y="149.9" font-family="Times,serif" font-size="13.00">Generated by RailRoady 1.3.0</text>
<text text-anchor="start" x="76.3123" y="162.9" font-family="Times,serif" font-size="13.00">http://railroady.prestonlee.com</text>
</g>
<!-- ApplicationController -->
<g id="node2" class="node"><title>ApplicationController</title>
<path fill="none" stroke="black" d="M233.179,-69C233.179,-69 348.821,-69 348.821,-69 354.821,-69 360.821,-75 360.821,-81 360.821,-81 360.821,-149 360.821,-149 360.821,-155 354.821,-161 348.821,-161 348.821,-161 233.179,-161 233.179,-161 227.179,-161 221.179,-155 221.179,-149 221.179,-149 221.179,-81 221.179,-81 221.179,-75 227.179,-69 233.179,-69"/>
<text text-anchor="middle" x="291" y="-145.8" font-family="Times,serif" font-size="14.00">ApplicationController</text>
<polyline fill="none" stroke="black" points="221.179,-139 360.821,-139 "/>
<polyline fill="none" stroke="black" points="221.179,-115 360.821,-115 "/>
<polyline fill="none" stroke="black" points="221.179,-91 360.821,-91 "/>
<text text-anchor="start" x="229.179" y="-75.8" font-family="Times,serif" font-size="14.00">_layout</text>
</g>
<!-- BookBagsController -->
<g id="node3" class="node"><title>BookBagsController</title>
<path fill="none" stroke="black" d="M-89.9414,-154C-89.9414,-154 17.9414,-154 17.9414,-154 23.9414,-154 29.9414,-160 29.9414,-166 29.9414,-166 29.9414,-358 29.9414,-358 29.9414,-364 23.9414,-370 17.9414,-370 17.9414,-370 -89.9414,-370 -89.9414,-370 -95.9414,-370 -101.941,-364 -101.941,-358 -101.941,-358 -101.941,-166 -101.941,-166 -101.941,-160 -95.9414,-154 -89.9414,-154"/>
<text text-anchor="middle" x="-36" y="-354.8" font-family="Times,serif" font-size="14.00">BookBagsController</text>
<polyline fill="none" stroke="black" points="-101.941,-348 29.9414,-348 "/>
<text text-anchor="start" x="-93.9414" y="-332.8" font-family="Times,serif" font-size="14.00">create</text>
<text text-anchor="start" x="-93.9414" y="-318.8" font-family="Times,serif" font-size="14.00">destroy</text>
<text text-anchor="start" x="-93.9414" y="-304.8" font-family="Times,serif" font-size="14.00">edit</text>
<text text-anchor="start" x="-93.9414" y="-290.8" font-family="Times,serif" font-size="14.00">index</text>
<text text-anchor="start" x="-93.9414" y="-276.8" font-family="Times,serif" font-size="14.00">new</text>
<text text-anchor="start" x="-93.9414" y="-262.8" font-family="Times,serif" font-size="14.00">show</text>
<text text-anchor="start" x="-93.9414" y="-248.8" font-family="Times,serif" font-size="14.00">update</text>
<polyline fill="none" stroke="black" points="-101.941,-242 29.9414,-242 "/>
<polyline fill="none" stroke="black" points="-101.941,-218 29.9414,-218 "/>
<text text-anchor="start" x="-93.9414" y="-202.8" font-family="Times,serif" font-size="14.00">_layout</text>
<text text-anchor="start" x="-93.9414" y="-188.8" font-family="Times,serif" font-size="14.00">book_bag_params</text>
<text text-anchor="start" x="-93.9414" y="-174.8" font-family="Times,serif" font-size="14.00">set_book_bag</text>
<text text-anchor="start" x="-93.9414" y="-160.8" font-family="Times,serif" font-size="14.00">set_classroom</text>
</g>
<!-- ClassroomsController -->
<g id="node4" class="node"><title>ClassroomsController</title>
<path fill="none" stroke="black" d="M198.559,-188C198.559,-188 313.441,-188 313.441,-188 319.441,-188 325.441,-194 325.441,-200 325.441,-200 325.441,-378 325.441,-378 325.441,-384 319.441,-390 313.441,-390 313.441,-390 198.559,-390 198.559,-390 192.559,-390 186.559,-384 186.559,-378 186.559,-378 186.559,-200 186.559,-200 186.559,-194 192.559,-188 198.559,-188"/>
<text text-anchor="middle" x="256" y="-374.8" font-family="Times,serif" font-size="14.00">ClassroomsController</text>
<polyline fill="none" stroke="black" points="186.559,-368 325.441,-368 "/>
<text text-anchor="start" x="194.559" y="-352.8" font-family="Times,serif" font-size="14.00">create</text>
<text text-anchor="start" x="194.559" y="-338.8" font-family="Times,serif" font-size="14.00">destroy</text>
<text text-anchor="start" x="194.559" y="-324.8" font-family="Times,serif" font-size="14.00">edit</text>
<text text-anchor="start" x="194.559" y="-310.8" font-family="Times,serif" font-size="14.00">index</text>
<text text-anchor="start" x="194.559" y="-296.8" font-family="Times,serif" font-size="14.00">new</text>
<text text-anchor="start" x="194.559" y="-282.8" font-family="Times,serif" font-size="14.00">show</text>
<text text-anchor="start" x="194.559" y="-268.8" font-family="Times,serif" font-size="14.00">update</text>
<polyline fill="none" stroke="black" points="186.559,-262 325.441,-262 "/>
<polyline fill="none" stroke="black" points="186.559,-238 325.441,-238 "/>
<text text-anchor="start" x="194.559" y="-222.8" font-family="Times,serif" font-size="14.00">_layout</text>
<text text-anchor="start" x="194.559" y="-208.8" font-family="Times,serif" font-size="14.00">classroom_params</text>
<text text-anchor="start" x="194.559" y="-194.8" font-family="Times,serif" font-size="14.00">set_classroom</text>
</g>
<!-- HomeController -->
<g id="node5" class="node"><title>HomeController</title>
<path fill="none" stroke="black" d="M-191.879,203C-191.879,203 -108.121,203 -108.121,203 -102.121,203 -96.1206,197 -96.1206,191 -96.1206,191 -96.1206,125 -96.1206,125 -96.1206,119 -102.121,113 -108.121,113 -108.121,113 -191.879,113 -191.879,113 -197.879,113 -203.879,119 -203.879,125 -203.879,125 -203.879,191 -203.879,191 -203.879,197 -197.879,203 -191.879,203"/>
<text text-anchor="middle" x="-150" y="128.2" font-family="Times,serif" font-size="14.00">HomeController</text>
<polyline fill="none" stroke="black" points="-203.879,135 -96.1206,135 "/>
<text text-anchor="start" x="-195.879" y="150.2" font-family="Times,serif" font-size="14.00">index</text>
<polyline fill="none" stroke="black" points="-203.879,157 -96.1206,157 "/>
<polyline fill="none" stroke="black" points="-203.879,181 -96.1206,181 "/>
<text text-anchor="start" x="-195.879" y="196.2" font-family="Times,serif" font-size="14.00">_layout</text>
</g>
<!-- InventoryStatesController -->
<g id="node6" class="node"><title>InventoryStatesController</title>
<path fill="none" stroke="black" d="M233.293,67C233.293,67 370.707,67 370.707,67 376.707,67 382.707,61 382.707,55 382.707,55 382.707,-25 382.707,-25 382.707,-31 376.707,-37 370.707,-37 370.707,-37 233.293,-37 233.293,-37 227.293,-37 221.293,-31 221.293,-25 221.293,-25 221.293,55 221.293,55 221.293,61 227.293,67 233.293,67"/>
<text text-anchor="middle" x="302" y="-21.8" font-family="Times,serif" font-size="14.00">InventoryStatesController</text>
<polyline fill="none" stroke="black" points="221.293,-15 382.707,-15 "/>
<text text-anchor="start" x="229.293" y="0.2" font-family="Times,serif" font-size="14.00">new</text>
<polyline fill="none" stroke="black" points="221.293,7 382.707,7 "/>
<polyline fill="none" stroke="black" points="221.293,31 382.707,31 "/>
<text text-anchor="start" x="229.293" y="46.2" font-family="Times,serif" font-size="14.00">_layout</text>
<text text-anchor="start" x="229.293" y="60.2" font-family="Times,serif" font-size="14.00">find_classroom</text>
</g>
<!-- PlansController -->
<g id="node7" class="node"><title>PlansController</title>
<path fill="none" stroke="black" d="M-55.9414,118C-55.9414,118 23.9414,118 23.9414,118 29.9414,118 35.9414,112 35.9414,106 35.9414,106 35.9414,-100 35.9414,-100 35.9414,-106 29.9414,-112 23.9414,-112 23.9414,-112 -55.9414,-112 -55.9414,-112 -61.9414,-112 -67.9414,-106 -67.9414,-100 -67.9414,-100 -67.9414,106 -67.9414,106 -67.9414,112 -61.9414,118 -55.9414,118"/>
<text text-anchor="middle" x="-16" y="-96.8" font-family="Times,serif" font-size="14.00">PlansController</text>
<polyline fill="none" stroke="black" points="-67.9414,-90 35.9414,-90 "/>
<text text-anchor="start" x="-59.9414" y="-74.8" font-family="Times,serif" font-size="14.00">create</text>
<text text-anchor="start" x="-59.9414" y="-60.8" font-family="Times,serif" font-size="14.00">destroy</text>
<text text-anchor="start" x="-59.9414" y="-46.8" font-family="Times,serif" font-size="14.00">edit</text>
<text text-anchor="start" x="-59.9414" y="-32.8" font-family="Times,serif" font-size="14.00">index</text>
<text text-anchor="start" x="-59.9414" y="-18.8" font-family="Times,serif" font-size="14.00">new</text>
<text text-anchor="start" x="-59.9414" y="-4.8" font-family="Times,serif" font-size="14.00">no_plan_found</text>
<text text-anchor="start" x="-59.9414" y="9.2" font-family="Times,serif" font-size="14.00">show</text>
<text text-anchor="start" x="-59.9414" y="23.2" font-family="Times,serif" font-size="14.00">update</text>
<polyline fill="none" stroke="black" points="-67.9414,30 35.9414,30 "/>
<polyline fill="none" stroke="black" points="-67.9414,54 35.9414,54 "/>
<text text-anchor="start" x="-59.9414" y="69.2" font-family="Times,serif" font-size="14.00">_layout</text>
<text text-anchor="start" x="-59.9414" y="83.2" font-family="Times,serif" font-size="14.00">plan_params</text>
<text text-anchor="start" x="-59.9414" y="97.2" font-family="Times,serif" font-size="14.00">set_classroom</text>
<text text-anchor="start" x="-59.9414" y="111.2" font-family="Times,serif" font-size="14.00">set_plan</text>
</g>
<!-- SchoolsController -->
<g id="node8" class="node"><title>SchoolsController</title>
<path fill="none" stroke="black" d="M-208.941,84C-208.941,84 -115.059,84 -115.059,84 -109.059,84 -103.059,78 -103.059,72 -103.059,72 -103.059,-106 -103.059,-106 -103.059,-112 -109.059,-118 -115.059,-118 -115.059,-118 -208.941,-118 -208.941,-118 -214.941,-118 -220.941,-112 -220.941,-106 -220.941,-106 -220.941,72 -220.941,72 -220.941,78 -214.941,84 -208.941,84"/>
<text text-anchor="middle" x="-162" y="-102.8" font-family="Times,serif" font-size="14.00">SchoolsController</text>
<polyline fill="none" stroke="black" points="-220.941,-96 -103.059,-96 "/>
<text text-anchor="start" x="-212.941" y="-80.8" font-family="Times,serif" font-size="14.00">create</text>
<text text-anchor="start" x="-212.941" y="-66.8" font-family="Times,serif" font-size="14.00">destroy</text>
<text text-anchor="start" x="-212.941" y="-52.8" font-family="Times,serif" font-size="14.00">edit</text>
<text text-anchor="start" x="-212.941" y="-38.8" font-family="Times,serif" font-size="14.00">index</text>
<text text-anchor="start" x="-212.941" y="-24.8" font-family="Times,serif" font-size="14.00">new</text>
<text text-anchor="start" x="-212.941" y="-10.8" font-family="Times,serif" font-size="14.00">show</text>
<text text-anchor="start" x="-212.941" y="3.2" font-family="Times,serif" font-size="14.00">update</text>
<polyline fill="none" stroke="black" points="-220.941,10 -103.059,10 "/>
<polyline fill="none" stroke="black" points="-220.941,34 -103.059,34 "/>
<text text-anchor="start" x="-212.941" y="49.2" font-family="Times,serif" font-size="14.00">_layout</text>
<text text-anchor="start" x="-212.941" y="63.2" font-family="Times,serif" font-size="14.00">school_params</text>
<text text-anchor="start" x="-212.941" y="77.2" font-family="Times,serif" font-size="14.00">set_school</text>
</g>
<!-- StudentsController -->
<g id="node9" class="node"><title>StudentsController</title>
<path fill="none" stroke="black" d="M80.1138,67C80.1138,67 177.886,67 177.886,67 183.886,67 189.886,61 189.886,55 189.886,55 189.886,-137 189.886,-137 189.886,-143 183.886,-149 177.886,-149 177.886,-149 80.1138,-149 80.1138,-149 74.1138,-149 68.1138,-143 68.1138,-137 68.1138,-137 68.1138,55 68.1138,55 68.1138,61 74.1138,67 80.1138,67"/>
<text text-anchor="middle" x="129" y="-133.8" font-family="Times,serif" font-size="14.00">StudentsController</text>
<polyline fill="none" stroke="black" points="68.1138,-127 189.886,-127 "/>
<text text-anchor="start" x="76.1138" y="-111.8" font-family="Times,serif" font-size="14.00">create</text>
<text text-anchor="start" x="76.1138" y="-97.8" font-family="Times,serif" font-size="14.00">destroy</text>
<text text-anchor="start" x="76.1138" y="-83.8" font-family="Times,serif" font-size="14.00">edit</text>
<text text-anchor="start" x="76.1138" y="-69.8" font-family="Times,serif" font-size="14.00">index</text>
<text text-anchor="start" x="76.1138" y="-55.8" font-family="Times,serif" font-size="14.00">new</text>
<text text-anchor="start" x="76.1138" y="-41.8" font-family="Times,serif" font-size="14.00">show</text>
<text text-anchor="start" x="76.1138" y="-27.8" font-family="Times,serif" font-size="14.00">update</text>
<polyline fill="none" stroke="black" points="68.1138,-21 189.886,-21 "/>
<polyline fill="none" stroke="black" points="68.1138,3 189.886,3 "/>
<text text-anchor="start" x="76.1138" y="18.2" font-family="Times,serif" font-size="14.00">_layout</text>
<text text-anchor="start" x="76.1138" y="32.2" font-family="Times,serif" font-size="14.00">set_classroom</text>
<text text-anchor="start" x="76.1138" y="46.2" font-family="Times,serif" font-size="14.00">set_student</text>
<text text-anchor="start" x="76.1138" y="60.2" font-family="Times,serif" font-size="14.00">student_params</text>
</g>
</g>
</svg>
