<?xml version="1.0" encoding="UTF-8" standalone="no"?>
<!DOCTYPE svg PUBLIC "-//W3C//DTD SVG 1.1//EN"
 "http://www.w3.org/Graphics/SVG/1.1/DTD/svg11.dtd">
<!-- Generated by graphviz version 2.38.0 (20140413.2041)
 -->
<!-- Title: models_diagram Pages: 1 -->
<svg width="488pt" height="481pt"
 viewBox="0.00 0.00 487.53 481.00" xmlns="http://www.w3.org/2000/svg" xmlns:xlink="http://www.w3.org/1999/xlink">
<g id="graph0" class="graph" transform="scale(1 1) rotate(0) translate(4 477)">
<title>models_diagram</title>
<polygon fill="white" stroke="none" points="-4,4 -4,-477 483.53,-477 483.53,4 -4,4"/>
<!-- _diagram_info -->
<g id="node1" class="node"><title>_diagram_info</title>
<text text-anchor="start" x="13.3266" y="-458.6" font-family="Times,serif" font-size="13.00">Models diagram</text>
<text text-anchor="start" x="13.3266" y="-445.6" font-family="Times,serif" font-size="13.00">Date: Jan 08 2015 &#45; 16:50</text>
<text text-anchor="start" x="13.3266" y="-432.6" font-family="Times,serif" font-size="13.00">Migration version: 20150104031619</text>
<text text-anchor="start" x="13.3266" y="-419.6" font-family="Times,serif" font-size="13.00">Generated by RailRoady 1.3.0</text>
<text text-anchor="start" x="13.3266" y="-406.6" font-family="Times,serif" font-size="13.00">http://railroady.prestonlee.com</text>
</g>
<!-- Assignment -->
<g id="node2" class="node"><title>Assignment</title>
<ellipse fill="none" stroke="black" cx="183.014" cy="-91" rx="52.2192" ry="18"/>
<text text-anchor="middle" x="183.014" y="-86.8" font-family="Times,serif" font-size="14.00">Assignment</text>
</g>
<!-- InventoryState -->
<g id="node5" class="node"><title>InventoryState</title>
<ellipse fill="none" stroke="black" cx="282.014" cy="-18" rx="62.3407" ry="18"/>
<text text-anchor="middle" x="282.014" y="-13.8" font-family="Times,serif" font-size="14.00">InventoryState</text>
</g>
<!-- Assignment&#45;&gt;InventoryState -->
<g id="edge1" class="edge"><title>Assignment&#45;&gt;InventoryState</title>
<path fill="none" stroke="#c4b8b4" d="M213.424,-68.1909C225.461,-59.5585 239.276,-49.6506 251.339,-40.9996"/>
<polygon fill="#c4b8b4" stroke="#c4b8b4" points="213.112,-68.4149 202.363,-70.586 209.049,-71.3288 204.986,-74.2428 204.986,-74.2428 204.986,-74.2428 209.049,-71.3288 207.608,-77.8996 213.112,-68.4149 213.112,-68.4149"/>
<polygon fill="#c4b8b4" stroke="#c4b8b4" points="251.636,-40.7866 262.385,-38.6155 255.699,-37.8726 259.762,-34.9587 259.762,-34.9587 259.762,-34.9587 255.699,-37.8726 257.139,-31.3019 251.636,-40.7866 251.636,-40.7866"/>
</g>
<!-- BookBag -->
<g id="node3" class="node"><title>BookBag</title>
<ellipse fill="none" stroke="black" cx="436.014" cy="-272" rx="43.5319" ry="18"/>
<text text-anchor="middle" x="436.014" y="-267.8" font-family="Times,serif" font-size="14.00">BookBag</text>
</g>
<!-- Classroom -->
<g id="node4" class="node"><title>Classroom</title>
<ellipse fill="none" stroke="black" cx="265.014" cy="-345" rx="47.8754" ry="18"/>
<text text-anchor="middle" x="265.014" y="-340.8" font-family="Times,serif" font-size="14.00">Classroom</text>
</g>
<!-- Classroom&#45;&gt;Assignment -->
<g id="edge5" class="edge"><title>Classroom&#45;&gt;Assignment</title>
<path fill="none" stroke="#3b9ae8" d="M207.051,-342.704C148.38,-340.086 63.2311,-332.259 41.0143,-309 -14.8568,-250.507 -12.2705,-187.858 41.0143,-127 52.2033,-114.221 90.4829,-105.239 124.48,-99.5762"/>
<polygon fill="#3b9ae8" stroke="#3b9ae8" points="207.321,-342.715 217.13,-347.618 212.317,-342.918 217.313,-343.122 217.313,-343.122 217.313,-343.122 212.317,-342.918 217.496,-338.625 207.321,-342.715 207.321,-342.715"/>
<polygon fill="#3b9ae8" stroke="#3b9ae8" points="124.518,-99.5704 135.101,-102.44 129.455,-98.7831 134.393,-97.9958 134.393,-97.9958 134.393,-97.9958 129.455,-98.7831 133.684,-93.5519 124.518,-99.5704 124.518,-99.5704"/>
</g>
<!-- Classroom&#45;&gt;Assignment -->
<g id="edge7" class="edge"><title>Classroom&#45;&gt;Assignment</title>
<path fill="none" stroke="#383807" d="M212.756,-333.947C161.477,-321.001 86.0174,-292.998 50.9313,-236 19.6065,-185.112 93.9239,-136.077 143.334,-110.438"/>
<polygon fill="#383807" stroke="#383807" points="212.95,-333.994 221.615,-340.714 217.81,-335.167 222.671,-336.34 222.671,-336.34 222.671,-336.34 217.81,-335.167 223.726,-331.965 212.95,-333.994 212.95,-333.994"/>
<polygon fill="#383807" stroke="#383807" points="143.62,-110.293 154.575,-109.793 148.081,-108.036 152.543,-105.778 152.543,-105.778 152.543,-105.778 148.081,-108.036 150.511,-101.763 143.62,-110.293 143.62,-110.293"/>
<text text-anchor="middle" x="112.056" y="-213.8" font-family="Times,serif" font-size="14.00">returned_assignments</text>
</g>
<!-- Classroom&#45;&gt;BookBag -->
<g id="edge3" class="edge"><title>Classroom&#45;&gt;BookBag</title>
<path fill="none" stroke="#d1d08d" d="M311.849,-332.393C332.576,-326.524 356.972,-318.598 378.014,-309 387.638,-304.611 397.601,-298.906 406.497,-293.337"/>
<ellipse fill="none" stroke="#d1d08d" cx="307.954" cy="-333.472" rx="4.00001" ry="4.00001"/>
<polygon fill="#d1d08d" stroke="#d1d08d" points="406.579,-293.284 417.423,-291.649 410.782,-290.575 414.985,-287.867 414.985,-287.867 414.985,-287.867 410.782,-290.575 412.548,-284.084 406.579,-293.284 406.579,-293.284"/>
</g>
<!-- Classroom&#45;&gt;InventoryState -->
<g id="edge6" class="edge"><title>Classroom&#45;&gt;InventoryState</title>
<path fill="none" stroke="#d661cd" d="M311.787,-329.988C337.412,-319.115 364.014,-301.068 364.014,-273 364.014,-273 364.014,-273 364.014,-90 364.014,-66.9747 345.308,-49.7473 325.764,-38.032"/>
<polygon fill="#d661cd" stroke="#d661cd" points="311.744,-330.005 300.791,-329.488 307.093,-331.84 302.442,-333.674 302.442,-333.674 302.442,-333.674 307.093,-331.84 304.093,-337.861 311.744,-330.005 311.744,-330.005"/>
<polygon fill="#d661cd" stroke="#d661cd" points="325.527,-37.9002 318.978,-29.1044 321.158,-35.4682 316.79,-33.0362 316.79,-33.0362 316.79,-33.0362 321.158,-35.4682 314.601,-36.968 325.527,-37.9002 325.527,-37.9002"/>
</g>
<!-- Period -->
<g id="node6" class="node"><title>Period</title>
<ellipse fill="none" stroke="black" cx="265.014" cy="-272" rx="33.3925" ry="18"/>
<text text-anchor="middle" x="265.014" y="-267.8" font-family="Times,serif" font-size="14.00">Period</text>
</g>
<!-- Classroom&#45;&gt;Period -->
<g id="edge8" class="edge"><title>Classroom&#45;&gt;Period</title>
<path fill="none" stroke="#e7d06d" d="M265.014,-316.753C265.014,-311.276 265.014,-305.521 265.014,-300.051"/>
<polygon fill="#e7d06d" stroke="#e7d06d" points="265.014,-316.813 260.514,-326.813 265.014,-321.813 265.014,-326.813 265.014,-326.813 265.014,-326.813 265.014,-321.813 269.514,-326.813 265.014,-316.813 265.014,-316.813"/>
<polygon fill="#e7d06d" stroke="#e7d06d" points="265.014,-300.029 269.514,-290.029 265.014,-295.029 265.014,-290.029 265.014,-290.029 265.014,-290.029 265.014,-295.029 260.514,-290.029 265.014,-300.029 265.014,-300.029"/>
</g>
<!-- Plan -->
<g id="node7" class="node"><title>Plan</title>
<ellipse fill="none" stroke="black" cx="246.014" cy="-164" rx="27" ry="18"/>
<text text-anchor="middle" x="246.014" y="-159.8" font-family="Times,serif" font-size="14.00">Plan</text>
</g>
<!-- Classroom&#45;&gt;Plan -->
<g id="edge4" class="edge"><title>Classroom&#45;&gt;Plan</title>
<path fill="none" stroke="#f22a53" d="M287.834,-321.59C295.47,-312.572 303.044,-301.571 307.014,-290 312.207,-274.866 311.451,-269.373 307.014,-254 299.649,-228.48 281.728,-203.925 267.205,-187.097"/>
<ellipse fill="none" stroke="#f22a53" cx="284.975" cy="-324.798" rx="4.00002" ry="4.00002"/>
<polygon fill="#f22a53" stroke="#f22a53" points="267.069,-186.945 263.766,-176.488 263.739,-183.215 260.409,-179.485 260.409,-179.485 260.409,-179.485 263.739,-183.215 257.053,-182.482 267.069,-186.945 267.069,-186.945"/>
</g>
<!-- Student -->
<g id="node9" class="node"><title>Student</title>
<ellipse fill="none" stroke="black" cx="219.014" cy="-218" rx="37.2594" ry="18"/>
<text text-anchor="middle" x="219.014" y="-213.8" font-family="Times,serif" font-size="14.00">Student</text>
</g>
<!-- Classroom&#45;&gt;Student -->
<g id="edge2" class="edge"><title>Classroom&#45;&gt;Student</title>
<path fill="none" stroke="#1cce28" d="M242.542,-321.465C234.946,-312.434 227.308,-301.455 223.014,-290 217.851,-276.226 216.627,-259.894 216.795,-246.368"/>
<ellipse fill="none" stroke="#1cce28" cx="245.372" cy="-324.676" rx="4.00002" ry="4.00002"/>
<polygon fill="#1cce28" stroke="#1cce28" points="216.8,-246.218 221.675,-236.395 216.989,-241.221 217.178,-236.225 217.178,-236.225 217.178,-236.225 216.989,-241.221 212.682,-236.055 216.8,-246.218 216.8,-246.218"/>
</g>
<!-- Period&#45;&gt;InventoryState -->
<g id="edge10" class="edge"><title>Period&#45;&gt;InventoryState</title>
<path fill="none" stroke="#6b80f8" d="M270.941,-245.898C271.67,-242.576 272.38,-239.21 273.014,-236 288.643,-156.843 285.427,-135.669 287.014,-55 287.083,-51.5223 286.89,-47.8731 286.545,-44.2874"/>
<ellipse fill="none" stroke="#6b80f8" cx="270.005" cy="-250.052" rx="4.00001" ry="4.00001"/>
<ellipse fill="#6b80f8" stroke="#6b80f8" cx="286.018" cy="-40.1154" rx="4.00001" ry="4.00001"/>
</g>
<!-- Period&#45;&gt;Plan -->
<g id="edge9" class="edge"><title>Period&#45;&gt;Plan</title>
<path fill="none" stroke="#174b77" d="M263.371,-245.912C262.179,-232.237 260.202,-215.075 257.014,-200 256.303,-196.635 255.402,-193.132 254.424,-189.7"/>
<ellipse fill="none" stroke="#174b77" cx="263.694" cy="-249.938" rx="4" ry="4"/>
<ellipse fill="#174b77" stroke="#174b77" cx="253.218" cy="-185.741" rx="4.00001" ry="4.00001"/>
</g>
<!-- Plan&#45;&gt;Assignment -->
<g id="edge11" class="edge"><title>Plan&#45;&gt;Assignment</title>
<path fill="none" stroke="#727232" d="M227.323,-141.936C220.143,-133.844 211.893,-124.546 204.473,-116.184"/>
<ellipse fill="none" stroke="#727232" cx="229.999" cy="-144.951" rx="4.00002" ry="4.00002"/>
<polygon fill="#727232" stroke="#727232" points="204.313,-116.003 201.042,-105.536 200.994,-112.263 197.676,-108.523 197.676,-108.523 197.676,-108.523 200.994,-112.263 194.31,-111.51 204.313,-116.003 204.313,-116.003"/>
</g>
<!-- Plan&#45;&gt;InventoryState -->
<g id="edge12" class="edge"><title>Plan&#45;&gt;InventoryState</title>
<path fill="none" stroke="#0334d3" d="M252.228,-138.145C258.803,-111.845 269.122,-70.5689 275.725,-44.1555"/>
<ellipse fill="none" stroke="#0334d3" cx="251.185" cy="-142.319" rx="4.00001" ry="4.00001"/>
<ellipse fill="#0334d3" stroke="#0334d3" cx="276.759" cy="-40.0204" rx="4.00001" ry="4.00001"/>
</g>
<!-- School -->
<g id="node8" class="node"><title>School</title>
<ellipse fill="none" stroke="black" cx="265.014" cy="-436.5" rx="34.8458" ry="18"/>
<text text-anchor="middle" x="265.014" y="-432.3" font-family="Times,serif" font-size="14.00">School</text>
</g>
<!-- School&#45;&gt;Classroom -->
<g id="edge13" class="edge"><title>School&#45;&gt;Classroom</title>
<path fill="none" stroke="#174a47" d="M265.014,-409.903C265.014,-398.441 265.014,-384.914 265.014,-373.263"/>
<ellipse fill="none" stroke="#174a47" cx="265.014" cy="-414.243" rx="4" ry="4"/>
<polygon fill="#174a47" stroke="#174a47" points="265.014,-373.204 269.514,-363.203 265.014,-368.204 265.014,-363.204 265.014,-363.204 265.014,-363.204 265.014,-368.204 260.514,-363.204 265.014,-373.204 265.014,-373.204"/>
</g>
<!-- Student&#45;&gt;Assignment -->
<g id="edge14" class="edge"><title>Student&#45;&gt;Assignment</title>
<path fill="none" stroke="#1edb49" d="M211.904,-192.31C205.779,-171.045 196.96,-140.423 190.68,-118.616"/>
<ellipse fill="none" stroke="#1edb49" cx="213.052" cy="-196.298" rx="4.00001" ry="4.00001"/>
<polygon fill="#1edb49" stroke="#1edb49" points="190.675,-118.6 192.232,-107.745 189.291,-113.795 187.907,-108.99 187.907,-108.99 187.907,-108.99 189.291,-113.795 183.583,-110.236 190.675,-118.6 190.675,-118.6"/>
</g>
</g>
</svg>
