<?xml version="1.0" encoding="UTF-8" standalone="no"?>
<!DOCTYPE svg PUBLIC "-//W3C//DTD SVG 1.1//EN"
 "http://www.w3.org/Graphics/SVG/1.1/DTD/svg11.dtd">
<!-- Generated by graphviz version 2.38.0 (20140413.2041)
 -->
<!-- Title: models_diagram Pages: 1 -->
<svg width="660pt" height="955pt"
 viewBox="0.00 0.00 660.35 955.00" xmlns="http://www.w3.org/2000/svg" xmlns:xlink="http://www.w3.org/1999/xlink">
<g id="graph0" class="graph" transform="scale(1 1) rotate(0) translate(4 951)">
<title>models_diagram</title>
<polygon fill="white" stroke="none" points="-4,4 -4,-951 656.35,-951 656.35,4 -4,4"/>
<!-- _diagram_info -->
<g id="node1" class="node"><title>_diagram_info</title>
<text text-anchor="start" x="71.205" y="-925.6" font-family="Times,serif" font-size="13.00">Models diagram</text>
<text text-anchor="start" x="71.205" y="-912.6" font-family="Times,serif" font-size="13.00">Date: Jan 08 2015 &#45; 16:50</text>
<text text-anchor="start" x="71.205" y="-899.6" font-family="Times,serif" font-size="13.00">Migration version: 20150104031619</text>
<text text-anchor="start" x="71.205" y="-886.6" font-family="Times,serif" font-size="13.00">Generated by RailRoady 1.3.0</text>
<text text-anchor="start" x="71.205" y="-873.6" font-family="Times,serif" font-size="13.00">http://railroady.prestonlee.com</text>
</g>
<!-- Assignment -->
<g id="node2" class="node"><title>Assignment</title>
<path fill="none" stroke="black" d="M177.212,-124.5C177.212,-124.5 288.574,-124.5 288.574,-124.5 294.574,-124.5 300.574,-130.5 300.574,-136.5 300.574,-136.5 300.574,-240.5 300.574,-240.5 300.574,-246.5 294.574,-252.5 288.574,-252.5 288.574,-252.5 177.212,-252.5 177.212,-252.5 171.212,-252.5 165.212,-246.5 165.212,-240.5 165.212,-240.5 165.212,-136.5 165.212,-136.5 165.212,-130.5 171.212,-124.5 177.212,-124.5"/>
<text text-anchor="middle" x="232.893" y="-237.3" font-family="Times,serif" font-size="14.00">Assignment</text>
<polyline fill="none" stroke="black" points="165.212,-230.5 300.574,-230.5 "/>
<text text-anchor="start" x="173.212" y="-215.3" font-family="Times,serif" font-size="14.00">id :integer</text>
<text text-anchor="start" x="173.212" y="-201.3" font-family="Times,serif" font-size="14.00">student_id :integer</text>
<text text-anchor="start" x="173.212" y="-187.3" font-family="Times,serif" font-size="14.00">book_bag_id :integer</text>
<text text-anchor="start" x="173.212" y="-173.3" font-family="Times,serif" font-size="14.00">plan_id :integer</text>
<text text-anchor="start" x="173.212" y="-159.3" font-family="Times,serif" font-size="14.00">created_at :datetime</text>
<text text-anchor="start" x="173.212" y="-145.3" font-family="Times,serif" font-size="14.00">updated_at :datetime</text>
<text text-anchor="start" x="173.212" y="-131.3" font-family="Times,serif" font-size="14.00">returned_at :datetime</text>
</g>
<!-- InventoryState -->
<g id="node5" class="node"><title>InventoryState</title>
<path fill="none" stroke="black" d="M336.387,-0.5C336.387,-0.5 445.398,-0.5 445.398,-0.5 451.398,-0.5 457.398,-6.5 457.398,-12.5 457.398,-12.5 457.398,-74.5 457.398,-74.5 457.398,-80.5 451.398,-86.5 445.398,-86.5 445.398,-86.5 336.387,-86.5 336.387,-86.5 330.387,-86.5 324.387,-80.5 324.387,-74.5 324.387,-74.5 324.387,-12.5 324.387,-12.5 324.387,-6.5 330.387,-0.5 336.387,-0.5"/>
<text text-anchor="middle" x="390.893" y="-71.3" font-family="Times,serif" font-size="14.00">InventoryState</text>
<polyline fill="none" stroke="black" points="324.387,-64.5 457.398,-64.5 "/>
<text text-anchor="start" x="332.387" y="-49.3" font-family="Times,serif" font-size="14.00">id :integer</text>
<text text-anchor="start" x="332.387" y="-35.3" font-family="Times,serif" font-size="14.00">created_at :datetime</text>
<text text-anchor="start" x="332.387" y="-21.3" font-family="Times,serif" font-size="14.00">updated_at :datetime</text>
<text text-anchor="start" x="332.387" y="-7.3" font-family="Times,serif" font-size="14.00">period_id :integer</text>
</g>
<!-- Assignment&#45;&gt;InventoryState -->
<g id="edge1" class="edge"><title>Assignment&#45;&gt;InventoryState</title>
<path fill="none" stroke="#1eb92a" d="M308.442,-119.123C318.042,-110.435 327.71,-101.684 336.878,-93.3868"/>
<polygon fill="#1eb92a" stroke="#1eb92a" points="308.23,-119.315 297.796,-122.689 304.523,-122.67 300.816,-126.025 300.816,-126.025 300.816,-126.025 304.523,-122.67 303.836,-129.362 308.23,-119.315 308.23,-119.315"/>
<polygon fill="#1eb92a" stroke="#1eb92a" points="337.034,-93.2453 347.468,-89.8713 340.742,-89.8901 344.449,-86.5349 344.449,-86.5349 344.449,-86.5349 340.742,-89.8901 341.429,-83.1984 337.034,-93.2453 337.034,-93.2453"/>
</g>
<!-- BookBag -->
<g id="node3" class="node"><title>BookBag</title>
<path fill="none" stroke="black" d="M527.436,-584.5C527.436,-584.5 640.35,-584.5 640.35,-584.5 646.35,-584.5 652.35,-590.5 652.35,-596.5 652.35,-596.5 652.35,-672.5 652.35,-672.5 652.35,-678.5 646.35,-684.5 640.35,-684.5 640.35,-684.5 527.436,-684.5 527.436,-684.5 521.436,-684.5 515.436,-678.5 515.436,-672.5 515.436,-672.5 515.436,-596.5 515.436,-596.5 515.436,-590.5 521.436,-584.5 527.436,-584.5"/>
<text text-anchor="middle" x="583.893" y="-669.3" font-family="Times,serif" font-size="14.00">BookBag</text>
<polyline fill="none" stroke="black" points="515.436,-662.5 652.35,-662.5 "/>
<text text-anchor="start" x="523.436" y="-647.3" font-family="Times,serif" font-size="14.00">id :integer</text>
<text text-anchor="start" x="523.436" y="-633.3" font-family="Times,serif" font-size="14.00">classroom_id :integer</text>
<text text-anchor="start" x="523.436" y="-619.3" font-family="Times,serif" font-size="14.00">created_at :datetime</text>
<text text-anchor="start" x="523.436" y="-605.3" font-family="Times,serif" font-size="14.00">updated_at :datetime</text>
<text text-anchor="start" x="523.436" y="-591.3" font-family="Times,serif" font-size="14.00">global_id :string</text>
</g>
<!-- Classroom -->
<g id="node4" class="node"><title>Classroom</title>
<path fill="none" stroke="black" d="M300.387,-722.5C300.387,-722.5 409.398,-722.5 409.398,-722.5 415.398,-722.5 421.398,-728.5 421.398,-734.5 421.398,-734.5 421.398,-810.5 421.398,-810.5 421.398,-816.5 415.398,-822.5 409.398,-822.5 409.398,-822.5 300.387,-822.5 300.387,-822.5 294.387,-822.5 288.387,-816.5 288.387,-810.5 288.387,-810.5 288.387,-734.5 288.387,-734.5 288.387,-728.5 294.387,-722.5 300.387,-722.5"/>
<text text-anchor="middle" x="354.893" y="-807.3" font-family="Times,serif" font-size="14.00">Classroom</text>
<polyline fill="none" stroke="black" points="288.387,-800.5 421.398,-800.5 "/>
<text text-anchor="start" x="296.387" y="-785.3" font-family="Times,serif" font-size="14.00">id :integer</text>
<text text-anchor="start" x="296.387" y="-771.3" font-family="Times,serif" font-size="14.00">name :string</text>
<text text-anchor="start" x="296.387" y="-757.3" font-family="Times,serif" font-size="14.00">created_at :datetime</text>
<text text-anchor="start" x="296.387" y="-743.3" font-family="Times,serif" font-size="14.00">updated_at :datetime</text>
<text text-anchor="start" x="296.387" y="-729.3" font-family="Times,serif" font-size="14.00">school_id :integer</text>
</g>
<!-- Classroom&#45;&gt;Assignment -->
<g id="edge5" class="edge"><title>Classroom&#45;&gt;Assignment</title>
<path fill="none" stroke="#e5f5ca" d="M278.124,-762.453C207.242,-752.382 109.352,-733.523 84.8928,-704 -37.8814,-555.806 -16.9713,-434.275 84.8928,-271 101.144,-244.952 128.847,-226.58 155.92,-213.961"/>
<polygon fill="#e5f5ca" stroke="#e5f5ca" points="278.469,-762.501 287.755,-768.333 283.421,-763.189 288.374,-763.876 288.374,-763.876 288.374,-763.876 283.421,-763.189 288.993,-759.419 278.469,-762.501 278.469,-762.501"/>
<polygon fill="#e5f5ca" stroke="#e5f5ca" points="155.922,-213.96 166.888,-214.012 160.491,-211.93 165.06,-209.9 165.06,-209.9 165.06,-209.9 160.491,-211.93 163.233,-205.787 155.922,-213.96 155.922,-213.96"/>
</g>
<!-- Classroom&#45;&gt;Assignment -->
<g id="edge7" class="edge"><title>Classroom&#45;&gt;Assignment</title>
<path fill="none" stroke="#696261" d="M279.306,-735.748C217.229,-701.762 133.603,-644.216 95.8098,-566 46.2422,-463.417 116.208,-337.988 173.048,-260.934"/>
<polygon fill="#696261" stroke="#696261" points="279.496,-735.85 286.167,-744.553 283.898,-738.221 288.3,-740.591 288.3,-740.591 288.3,-740.591 283.898,-738.221 290.434,-736.629 279.496,-735.85 279.496,-735.85"/>
<polygon fill="#696261" stroke="#696261" points="173.212,-260.715 182.805,-255.403 176.207,-256.711 179.202,-252.708 179.202,-252.708 179.202,-252.708 176.207,-256.711 175.599,-250.012 173.212,-260.715 173.212,-260.715"/>
<text text-anchor="middle" x="156.934" y="-497.3" font-family="Times,serif" font-size="14.00">returned_assignments</text>
</g>
<!-- Classroom&#45;&gt;BookBag -->
<g id="edge3" class="edge"><title>Classroom&#45;&gt;BookBag</title>
<path fill="none" stroke="#e04b80" d="M428.961,-742.094C452.941,-731.378 479.19,-718.335 501.893,-704 508.147,-700.051 514.443,-695.67 520.614,-691.088"/>
<ellipse fill="none" stroke="#e04b80" cx="425.258" cy="-743.728" rx="4.00002" ry="4.00002"/>
<polygon fill="#e04b80" stroke="#e04b80" points="520.989,-690.802 531.669,-688.314 524.964,-687.769 528.939,-684.736 528.939,-684.736 528.939,-684.736 524.964,-687.769 526.209,-681.159 520.989,-690.802 520.989,-690.802"/>
</g>
<!-- Classroom&#45;&gt;InventoryState -->
<g id="edge6" class="edge"><title>Classroom&#45;&gt;InventoryState</title>
<path fill="none" stroke="#040c2b" d="M429.912,-728.954C460.093,-705.889 487.893,-674.153 487.893,-635.5 487.893,-635.5 487.893,-635.5 487.893,-187.5 487.893,-152.429 467.664,-119.568 445.682,-94.212"/>
<polygon fill="#040c2b" stroke="#040c2b" points="429.841,-729.007 419.118,-731.303 425.811,-731.968 421.782,-734.929 421.782,-734.929 421.782,-734.929 425.811,-731.968 424.447,-738.555 429.841,-729.007 429.841,-729.007"/>
<polygon fill="#040c2b" stroke="#040c2b" points="445.513,-94.0238 442.17,-83.5799 442.169,-90.3068 438.824,-86.5898 438.824,-86.5898 438.824,-86.5898 442.169,-90.3068 435.479,-89.5996 445.513,-94.0238 445.513,-94.0238"/>
</g>
<!-- Period -->
<g id="node6" class="node"><title>Period</title>
<path fill="none" stroke="black" d="M300.387,-598.5C300.387,-598.5 409.398,-598.5 409.398,-598.5 415.398,-598.5 421.398,-604.5 421.398,-610.5 421.398,-610.5 421.398,-658.5 421.398,-658.5 421.398,-664.5 415.398,-670.5 409.398,-670.5 409.398,-670.5 300.387,-670.5 300.387,-670.5 294.387,-670.5 288.387,-664.5 288.387,-658.5 288.387,-658.5 288.387,-610.5 288.387,-610.5 288.387,-604.5 294.387,-598.5 300.387,-598.5"/>
<text text-anchor="middle" x="354.893" y="-655.3" font-family="Times,serif" font-size="14.00">Period</text>
<polyline fill="none" stroke="black" points="288.387,-648.5 421.398,-648.5 "/>
<text text-anchor="start" x="296.387" y="-633.3" font-family="Times,serif" font-size="14.00">id :integer</text>
<text text-anchor="start" x="296.387" y="-619.3" font-family="Times,serif" font-size="14.00">created_at :datetime</text>
<text text-anchor="start" x="296.387" y="-605.3" font-family="Times,serif" font-size="14.00">updated_at :datetime</text>
</g>
<!-- Classroom&#45;&gt;Period -->
<g id="edge8" class="edge"><title>Classroom&#45;&gt;Period</title>
<path fill="none" stroke="#06b9ab" d="M354.893,-712.253C354.893,-701.782 354.893,-691.029 354.893,-681.01"/>
<polygon fill="#06b9ab" stroke="#06b9ab" points="354.893,-712.401 350.393,-722.401 354.893,-717.401 354.893,-722.401 354.893,-722.401 354.893,-722.401 354.893,-717.401 359.393,-722.401 354.893,-712.401 354.893,-712.401"/>
<polygon fill="#06b9ab" stroke="#06b9ab" points="354.893,-680.877 359.393,-670.877 354.893,-675.877 354.893,-670.877 354.893,-670.877 354.893,-670.877 354.893,-675.877 350.393,-670.877 354.893,-680.877 354.893,-680.877"/>
</g>
<!-- Plan -->
<g id="node7" class="node"><title>Plan</title>
<path fill="none" stroke="black" d="M272.436,-290.5C272.436,-290.5 385.35,-290.5 385.35,-290.5 391.35,-290.5 397.35,-296.5 397.35,-302.5 397.35,-302.5 397.35,-406.5 397.35,-406.5 397.35,-412.5 391.35,-418.5 385.35,-418.5 385.35,-418.5 272.436,-418.5 272.436,-418.5 266.436,-418.5 260.436,-412.5 260.436,-406.5 260.436,-406.5 260.436,-302.5 260.436,-302.5 260.436,-296.5 266.436,-290.5 272.436,-290.5"/>
<text text-anchor="middle" x="328.893" y="-403.3" font-family="Times,serif" font-size="14.00">Plan</text>
<polyline fill="none" stroke="black" points="260.436,-396.5 397.35,-396.5 "/>
<text text-anchor="start" x="268.436" y="-381.3" font-family="Times,serif" font-size="14.00">id :integer</text>
<text text-anchor="start" x="268.436" y="-367.3" font-family="Times,serif" font-size="14.00">title :string</text>
<text text-anchor="start" x="268.436" y="-353.3" font-family="Times,serif" font-size="14.00">classroom_id :integer</text>
<text text-anchor="start" x="268.436" y="-339.3" font-family="Times,serif" font-size="14.00">created_at :datetime</text>
<text text-anchor="start" x="268.436" y="-325.3" font-family="Times,serif" font-size="14.00">updated_at :datetime</text>
<text text-anchor="start" x="268.436" y="-311.3" font-family="Times,serif" font-size="14.00">name :string</text>
<text text-anchor="start" x="268.436" y="-297.3" font-family="Times,serif" font-size="14.00">period_id :integer</text>
</g>
<!-- Classroom&#45;&gt;Plan -->
<g id="edge4" class="edge"><title>Classroom&#45;&gt;Plan</title>
<path fill="none" stroke="#393715" d="M413.732,-715.624C420.732,-706.111 426.826,-695.791 430.893,-685 446.724,-642.996 438.219,-628.287 430.893,-584 419.631,-515.916 410.778,-499.202 380.893,-437 379.394,-433.88 377.799,-430.733 376.133,-427.585"/>
<ellipse fill="none" stroke="#393715" cx="411.198" cy="-718.91" rx="4.00002" ry="4.00002"/>
<polygon fill="#393715" stroke="#393715" points="376.083,-427.495 375.216,-416.563 373.677,-423.111 371.271,-418.728 371.271,-418.728 371.271,-418.728 373.677,-423.111 367.327,-420.894 376.083,-427.495 376.083,-427.495"/>
</g>
<!-- Student -->
<g id="node9" class="node"><title>Student</title>
<path fill="none" stroke="black" d="M238.436,-437.5C238.436,-437.5 351.35,-437.5 351.35,-437.5 357.35,-437.5 363.35,-443.5 363.35,-449.5 363.35,-449.5 363.35,-553.5 363.35,-553.5 363.35,-559.5 357.35,-565.5 351.35,-565.5 351.35,-565.5 238.436,-565.5 238.436,-565.5 232.436,-565.5 226.436,-559.5 226.436,-553.5 226.436,-553.5 226.436,-449.5 226.436,-449.5 226.436,-443.5 232.436,-437.5 238.436,-437.5"/>
<text text-anchor="middle" x="294.893" y="-550.3" font-family="Times,serif" font-size="14.00">Student</text>
<polyline fill="none" stroke="black" points="226.436,-543.5 363.35,-543.5 "/>
<text text-anchor="start" x="234.436" y="-528.3" font-family="Times,serif" font-size="14.00">id :integer</text>
<text text-anchor="start" x="234.436" y="-514.3" font-family="Times,serif" font-size="14.00">classroom_id :integer</text>
<text text-anchor="start" x="234.436" y="-500.3" font-family="Times,serif" font-size="14.00">created_at :datetime</text>
<text text-anchor="start" x="234.436" y="-486.3" font-family="Times,serif" font-size="14.00">updated_at :datetime</text>
<text text-anchor="start" x="234.436" y="-472.3" font-family="Times,serif" font-size="14.00">first_name :string</text>
<text text-anchor="start" x="234.436" y="-458.3" font-family="Times,serif" font-size="14.00">last_name :string</text>
<text text-anchor="start" x="234.436" y="-444.3" font-family="Times,serif" font-size="14.00">inactive :boolean</text>
</g>
<!-- Classroom&#45;&gt;Student -->
<g id="edge2" class="edge"><title>Classroom&#45;&gt;Student</title>
<path fill="none" stroke="#08b1bd" d="M296.053,-715.624C289.053,-706.111 282.96,-695.791 278.893,-685 265.876,-650.463 267.948,-609.737 274.104,-575.529"/>
<ellipse fill="none" stroke="#08b1bd" cx="298.587" cy="-718.91" rx="4.00002" ry="4.00002"/>
<polygon fill="#08b1bd" stroke="#08b1bd" points="274.125,-575.418 280.453,-566.462 275.08,-570.51 276.035,-565.602 276.035,-565.602 276.035,-565.602 275.08,-570.51 271.618,-564.743 274.125,-575.418 274.125,-575.418"/>
</g>
<!-- Period&#45;&gt;InventoryState -->
<g id="edge10" class="edge"><title>Period&#45;&gt;InventoryState</title>
<path fill="none" stroke="#119d1d" d="M372.972,-590.354C375.906,-582.35 378.698,-573.992 380.893,-566 398.446,-502.095 400.317,-485.036 405.893,-419 415.671,-303.187 404.502,-166.673 396.856,-94.7238"/>
<ellipse fill="none" stroke="#119d1d" cx="371.419" cy="-594.47" rx="4.00001" ry="4.00001"/>
<ellipse fill="#119d1d" stroke="#119d1d" cx="396.419" cy="-90.6746" rx="4.00001" ry="4.00001"/>
</g>
<!-- Period&#45;&gt;Plan -->
<g id="edge9" class="edge"><title>Period&#45;&gt;Plan</title>
<path fill="none" stroke="#ab9353" d="M362.934,-590.321C368.985,-550.184 374.576,-488.949 363.893,-437 363.175,-433.512 362.302,-429.989 361.307,-426.466"/>
<ellipse fill="none" stroke="#ab9353" cx="362.301" cy="-594.354" rx="4.00001" ry="4.00001"/>
<ellipse fill="#ab9353" stroke="#ab9353" cx="360.119" cy="-422.591" rx="4.00001" ry="4.00001"/>
</g>
<!-- Plan&#45;&gt;Assignment -->
<g id="edge11" class="edge"><title>Plan&#45;&gt;Assignment</title>
<path fill="none" stroke="#9470b0" d="M287.709,-283.144C283.55,-276.039 279.321,-268.815 275.151,-261.691"/>
<ellipse fill="none" stroke="#9470b0" cx="289.756" cy="-286.641" rx="4.00002" ry="4.00002"/>
<polygon fill="#9470b0" stroke="#9470b0" points="274.962,-261.368 273.794,-250.465 272.436,-257.053 269.91,-252.738 269.91,-252.738 269.91,-252.738 272.436,-257.053 266.027,-255.011 274.962,-261.368 274.962,-261.368"/>
</g>
<!-- Plan&#45;&gt;InventoryState -->
<g id="edge12" class="edge"><title>Plan&#45;&gt;InventoryState</title>
<path fill="none" stroke="#fb363b" d="M343.192,-282.237C354.699,-224.884 370.584,-145.715 380.799,-94.8079"/>
<ellipse fill="none" stroke="#fb363b" cx="342.376" cy="-286.302" rx="4.00001" ry="4.00001"/>
<ellipse fill="#fb363b" stroke="#fb363b" cx="381.601" cy="-90.8097" rx="4.00001" ry="4.00001"/>
</g>
<!-- School -->
<g id="node8" class="node"><title>School</title>
<path fill="none" stroke="black" d="M300.387,-860.5C300.387,-860.5 409.398,-860.5 409.398,-860.5 415.398,-860.5 421.398,-866.5 421.398,-872.5 421.398,-872.5 421.398,-934.5 421.398,-934.5 421.398,-940.5 415.398,-946.5 409.398,-946.5 409.398,-946.5 300.387,-946.5 300.387,-946.5 294.387,-946.5 288.387,-940.5 288.387,-934.5 288.387,-934.5 288.387,-872.5 288.387,-872.5 288.387,-866.5 294.387,-860.5 300.387,-860.5"/>
<text text-anchor="middle" x="354.893" y="-931.3" font-family="Times,serif" font-size="14.00">School</text>
<polyline fill="none" stroke="black" points="288.387,-924.5 421.398,-924.5 "/>
<text text-anchor="start" x="296.387" y="-909.3" font-family="Times,serif" font-size="14.00">id :integer</text>
<text text-anchor="start" x="296.387" y="-895.3" font-family="Times,serif" font-size="14.00">name :string</text>
<text text-anchor="start" x="296.387" y="-881.3" font-family="Times,serif" font-size="14.00">created_at :datetime</text>
<text text-anchor="start" x="296.387" y="-867.3" font-family="Times,serif" font-size="14.00">updated_at :datetime</text>
</g>
<!-- School&#45;&gt;Classroom -->
<g id="edge13" class="edge"><title>School&#45;&gt;Classroom</title>
<path fill="none" stroke="#0363ca" d="M354.893,-852.204C354.893,-845.809 354.893,-839.219 354.893,-832.701"/>
<ellipse fill="none" stroke="#0363ca" cx="354.893" cy="-856.261" rx="4" ry="4"/>
<polygon fill="#0363ca" stroke="#0363ca" points="354.893,-832.557 359.393,-822.557 354.893,-827.557 354.893,-822.557 354.893,-822.557 354.893,-822.557 354.893,-827.557 350.393,-822.557 354.893,-832.557 354.893,-832.557"/>
</g>
<!-- Student&#45;&gt;Assignment -->
<g id="edge14" class="edge"><title>Student&#45;&gt;Assignment</title>
<path fill="none" stroke="#6cfb5f" d="M255.564,-429.98C254.195,-426.319 252.958,-422.647 251.893,-419 237.05,-368.157 232.481,-308.474 231.528,-262.718"/>
<ellipse fill="none" stroke="#6cfb5f" cx="257.065" cy="-433.75" rx="4.00001" ry="4.00001"/>
<polygon fill="#6cfb5f" stroke="#6cfb5f" points="231.526,-262.584 235.87,-252.515 231.448,-257.584 231.37,-252.585 231.37,-252.585 231.37,-252.585 231.448,-257.584 226.871,-252.655 231.526,-262.584 231.526,-262.584"/>
</g>
</g>
</svg>
