<?xml version="1.0" encoding="UTF-8" standalone="no"?>
<!DOCTYPE svg PUBLIC "-//W3C//DTD SVG 1.1//EN"
 "http://www.w3.org/Graphics/SVG/1.1/DTD/svg11.dtd">
<!-- Generated by graphviz version 2.38.0 (20140413.2041)
 -->
<!-- Title: models_diagram Pages: 1 -->
<svg width="655pt" height="927pt"
 viewBox="0.00 0.00 655.12 927.00" xmlns="http://www.w3.org/2000/svg" xmlns:xlink="http://www.w3.org/1999/xlink">
<g id="graph0" class="graph" transform="scale(1 1) rotate(0) translate(4 923)">
<title>models_diagram</title>
<polygon fill="white" stroke="none" points="-4,4 -4,-923 651.116,-923 651.116,4 -4,4"/>
<!-- _diagram_info -->
<g id="node1" class="node"><title>_diagram_info</title>
<text text-anchor="start" x="66.209" y="-897.6" font-family="Times,serif" font-size="13.00">Models diagram</text>
<text text-anchor="start" x="66.209" y="-884.6" font-family="Times,serif" font-size="13.00">Date: Jan 19 2015 &#45; 16:16</text>
<text text-anchor="start" x="66.209" y="-871.6" font-family="Times,serif" font-size="13.00">Migration version: 20150119205000</text>
<text text-anchor="start" x="66.209" y="-858.6" font-family="Times,serif" font-size="13.00">Generated by RailRoady 1.3.0</text>
<text text-anchor="start" x="66.209" y="-845.6" font-family="Times,serif" font-size="13.00">http://railroady.prestonlee.com</text>
</g>
<!-- Assignment -->
<g id="node2" class="node"><title>Assignment</title>
<path fill="none" stroke="black" d="M171.978,-124.5C171.978,-124.5 283.34,-124.5 283.34,-124.5 289.34,-124.5 295.34,-130.5 295.34,-136.5 295.34,-136.5 295.34,-240.5 295.34,-240.5 295.34,-246.5 289.34,-252.5 283.34,-252.5 283.34,-252.5 171.978,-252.5 171.978,-252.5 165.978,-252.5 159.978,-246.5 159.978,-240.5 159.978,-240.5 159.978,-136.5 159.978,-136.5 159.978,-130.5 165.978,-124.5 171.978,-124.5"/>
<text text-anchor="middle" x="227.659" y="-237.3" font-family="Times,serif" font-size="14.00">Assignment</text>
<polyline fill="none" stroke="black" points="159.978,-230.5 295.34,-230.5 "/>
<text text-anchor="start" x="167.978" y="-215.3" font-family="Times,serif" font-size="14.00">id :integer</text>
<text text-anchor="start" x="167.978" y="-201.3" font-family="Times,serif" font-size="14.00">student_id :integer</text>
<text text-anchor="start" x="167.978" y="-187.3" font-family="Times,serif" font-size="14.00">book_bag_id :integer</text>
<text text-anchor="start" x="167.978" y="-173.3" font-family="Times,serif" font-size="14.00">plan_id :integer</text>
<text text-anchor="start" x="167.978" y="-159.3" font-family="Times,serif" font-size="14.00">created_at :datetime</text>
<text text-anchor="start" x="167.978" y="-145.3" font-family="Times,serif" font-size="14.00">updated_at :datetime</text>
<text text-anchor="start" x="167.978" y="-131.3" font-family="Times,serif" font-size="14.00">returned_at :datetime</text>
</g>
<!-- InventoryState -->
<g id="node5" class="node"><title>InventoryState</title>
<path fill="none" stroke="black" d="M331.153,-0.5C331.153,-0.5 440.164,-0.5 440.164,-0.5 446.164,-0.5 452.164,-6.5 452.164,-12.5 452.164,-12.5 452.164,-74.5 452.164,-74.5 452.164,-80.5 446.164,-86.5 440.164,-86.5 440.164,-86.5 331.153,-86.5 331.153,-86.5 325.153,-86.5 319.153,-80.5 319.153,-74.5 319.153,-74.5 319.153,-12.5 319.153,-12.5 319.153,-6.5 325.153,-0.5 331.153,-0.5"/>
<text text-anchor="middle" x="385.659" y="-71.3" font-family="Times,serif" font-size="14.00">InventoryState</text>
<polyline fill="none" stroke="black" points="319.153,-64.5 452.164,-64.5 "/>
<text text-anchor="start" x="327.153" y="-49.3" font-family="Times,serif" font-size="14.00">id :integer</text>
<text text-anchor="start" x="327.153" y="-35.3" font-family="Times,serif" font-size="14.00">created_at :datetime</text>
<text text-anchor="start" x="327.153" y="-21.3" font-family="Times,serif" font-size="14.00">updated_at :datetime</text>
<text text-anchor="start" x="327.153" y="-7.3" font-family="Times,serif" font-size="14.00">period_id :integer</text>
</g>
<!-- Assignment&#45;&gt;InventoryState -->
<g id="edge1" class="edge"><title>Assignment&#45;&gt;InventoryState</title>
<path fill="none" stroke="#c5f9af" d="M303.208,-119.123C312.808,-110.435 322.476,-101.684 331.644,-93.3868"/>
<polygon fill="#c5f9af" stroke="#c5f9af" points="302.996,-119.315 292.562,-122.689 299.289,-122.67 295.582,-126.025 295.582,-126.025 295.582,-126.025 299.289,-122.67 298.602,-129.362 302.996,-119.315 302.996,-119.315"/>
<polygon fill="#c5f9af" stroke="#c5f9af" points="331.8,-93.2453 342.234,-89.8713 335.507,-89.8901 339.215,-86.5349 339.215,-86.5349 339.215,-86.5349 335.507,-89.8901 336.195,-83.1984 331.8,-93.2453 331.8,-93.2453"/>
</g>
<!-- BookBag -->
<g id="node3" class="node"><title>BookBag</title>
<path fill="none" stroke="black" d="M522.202,-556.5C522.202,-556.5 635.116,-556.5 635.116,-556.5 641.116,-556.5 647.116,-562.5 647.116,-568.5 647.116,-568.5 647.116,-644.5 647.116,-644.5 647.116,-650.5 641.116,-656.5 635.116,-656.5 635.116,-656.5 522.202,-656.5 522.202,-656.5 516.202,-656.5 510.202,-650.5 510.202,-644.5 510.202,-644.5 510.202,-568.5 510.202,-568.5 510.202,-562.5 516.202,-556.5 522.202,-556.5"/>
<text text-anchor="middle" x="578.659" y="-641.3" font-family="Times,serif" font-size="14.00">BookBag</text>
<polyline fill="none" stroke="black" points="510.202,-634.5 647.116,-634.5 "/>
<text text-anchor="start" x="518.202" y="-619.3" font-family="Times,serif" font-size="14.00">id :integer</text>
<text text-anchor="start" x="518.202" y="-605.3" font-family="Times,serif" font-size="14.00">classroom_id :integer</text>
<text text-anchor="start" x="518.202" y="-591.3" font-family="Times,serif" font-size="14.00">created_at :datetime</text>
<text text-anchor="start" x="518.202" y="-577.3" font-family="Times,serif" font-size="14.00">updated_at :datetime</text>
<text text-anchor="start" x="518.202" y="-563.3" font-family="Times,serif" font-size="14.00">global_id :integer</text>
</g>
<!-- Classroom -->
<g id="node4" class="node"><title>Classroom</title>
<path fill="none" stroke="black" d="M295.153,-694.5C295.153,-694.5 404.164,-694.5 404.164,-694.5 410.164,-694.5 416.164,-700.5 416.164,-706.5 416.164,-706.5 416.164,-782.5 416.164,-782.5 416.164,-788.5 410.164,-794.5 404.164,-794.5 404.164,-794.5 295.153,-794.5 295.153,-794.5 289.153,-794.5 283.153,-788.5 283.153,-782.5 283.153,-782.5 283.153,-706.5 283.153,-706.5 283.153,-700.5 289.153,-694.5 295.153,-694.5"/>
<text text-anchor="middle" x="349.659" y="-779.3" font-family="Times,serif" font-size="14.00">Classroom</text>
<polyline fill="none" stroke="black" points="283.153,-772.5 416.164,-772.5 "/>
<text text-anchor="start" x="291.153" y="-757.3" font-family="Times,serif" font-size="14.00">id :integer</text>
<text text-anchor="start" x="291.153" y="-743.3" font-family="Times,serif" font-size="14.00">name :string</text>
<text text-anchor="start" x="291.153" y="-729.3" font-family="Times,serif" font-size="14.00">created_at :datetime</text>
<text text-anchor="start" x="291.153" y="-715.3" font-family="Times,serif" font-size="14.00">updated_at :datetime</text>
<text text-anchor="start" x="291.153" y="-701.3" font-family="Times,serif" font-size="14.00">school_id :integer</text>
</g>
<!-- Classroom&#45;&gt;Assignment -->
<g id="edge5" class="edge"><title>Classroom&#45;&gt;Assignment</title>
<path fill="none" stroke="#343bdd" d="M272.89,-734.453C202.008,-724.382 104.118,-705.523 79.6587,-676 -35.1762,-537.389 -16.3617,-423.25 79.6587,-271 95.9654,-245.144 123.522,-226.833 150.466,-214.209"/>
<polygon fill="#343bdd" stroke="#343bdd" points="273.235,-734.501 282.521,-740.333 278.187,-735.189 283.14,-735.876 283.14,-735.876 283.14,-735.876 278.187,-735.189 283.758,-731.419 273.235,-734.501 273.235,-734.501"/>
<polygon fill="#343bdd" stroke="#343bdd" points="150.819,-214.052 161.785,-214.088 155.386,-212.015 159.952,-209.978 159.952,-209.978 159.952,-209.978 155.386,-212.015 158.119,-205.869 150.819,-214.052 150.819,-214.052"/>
</g>
<!-- Classroom&#45;&gt;Assignment -->
<g id="edge7" class="edge"><title>Classroom&#45;&gt;Assignment</title>
<path fill="none" stroke="#40262a" d="M274.072,-707.748C211.995,-673.762 128.369,-616.216 90.5757,-538 45.431,-444.57 109.856,-332.184 164.778,-260.79"/>
<polygon fill="#40262a" stroke="#40262a" points="274.262,-707.85 280.933,-716.553 278.664,-710.221 283.066,-712.591 283.066,-712.591 283.066,-712.591 278.664,-710.221 285.2,-708.629 274.262,-707.85 274.262,-707.85"/>
<polygon fill="#40262a" stroke="#40262a" points="164.924,-260.603 174.625,-255.492 168.001,-256.663 171.079,-252.722 171.079,-252.722 171.079,-252.722 168.001,-256.663 167.532,-249.952 164.924,-260.603 164.924,-260.603"/>
<text text-anchor="middle" x="151.7" y="-469.3" font-family="Times,serif" font-size="14.00">returned_assignments</text>
</g>
<!-- Classroom&#45;&gt;BookBag -->
<g id="edge3" class="edge"><title>Classroom&#45;&gt;BookBag</title>
<path fill="none" stroke="#a2a429" d="M423.727,-714.094C447.707,-703.378 473.956,-690.335 496.659,-676 502.913,-672.051 509.208,-667.67 515.38,-663.088"/>
<ellipse fill="none" stroke="#a2a429" cx="420.024" cy="-715.728" rx="4.00002" ry="4.00002"/>
<polygon fill="#a2a429" stroke="#a2a429" points="515.755,-662.802 526.434,-660.314 519.73,-659.769 523.705,-656.736 523.705,-656.736 523.705,-656.736 519.73,-659.769 520.975,-653.159 515.755,-662.802 515.755,-662.802"/>
</g>
<!-- Classroom&#45;&gt;InventoryState -->
<g id="edge6" class="edge"><title>Classroom&#45;&gt;InventoryState</title>
<path fill="none" stroke="#7a8640" d="M424.678,-700.954C454.859,-677.889 482.659,-646.153 482.659,-607.5 482.659,-607.5 482.659,-607.5 482.659,-187.5 482.659,-152.429 462.43,-119.568 440.448,-94.212"/>
<polygon fill="#7a8640" stroke="#7a8640" points="424.606,-701.007 413.884,-703.303 420.577,-703.968 416.548,-706.929 416.548,-706.929 416.548,-706.929 420.577,-703.968 419.213,-710.555 424.606,-701.007 424.606,-701.007"/>
<polygon fill="#7a8640" stroke="#7a8640" points="440.279,-94.0238 436.936,-83.5799 436.935,-90.3068 433.59,-86.5898 433.59,-86.5898 433.59,-86.5898 436.935,-90.3068 430.245,-89.5996 440.279,-94.0238 440.279,-94.0238"/>
</g>
<!-- Period -->
<g id="node6" class="node"><title>Period</title>
<path fill="none" stroke="black" d="M295.153,-563.5C295.153,-563.5 404.164,-563.5 404.164,-563.5 410.164,-563.5 416.164,-569.5 416.164,-575.5 416.164,-575.5 416.164,-637.5 416.164,-637.5 416.164,-643.5 410.164,-649.5 404.164,-649.5 404.164,-649.5 295.153,-649.5 295.153,-649.5 289.153,-649.5 283.153,-643.5 283.153,-637.5 283.153,-637.5 283.153,-575.5 283.153,-575.5 283.153,-569.5 289.153,-563.5 295.153,-563.5"/>
<text text-anchor="middle" x="349.659" y="-634.3" font-family="Times,serif" font-size="14.00">Period</text>
<polyline fill="none" stroke="black" points="283.153,-627.5 416.164,-627.5 "/>
<text text-anchor="start" x="291.153" y="-612.3" font-family="Times,serif" font-size="14.00">id :integer</text>
<text text-anchor="start" x="291.153" y="-598.3" font-family="Times,serif" font-size="14.00">created_at :datetime</text>
<text text-anchor="start" x="291.153" y="-584.3" font-family="Times,serif" font-size="14.00">updated_at :datetime</text>
<text text-anchor="start" x="291.153" y="-570.3" font-family="Times,serif" font-size="14.00">name :string</text>
</g>
<!-- Classroom&#45;&gt;Period -->
<g id="edge8" class="edge"><title>Classroom&#45;&gt;Period</title>
<path fill="none" stroke="#b6ae2f" d="M349.659,-684.312C349.659,-676.231 349.659,-667.981 349.659,-660.029"/>
<polygon fill="#b6ae2f" stroke="#b6ae2f" points="349.659,-684.401 345.159,-694.401 349.659,-689.401 349.659,-694.401 349.659,-694.401 349.659,-694.401 349.659,-689.401 354.159,-694.401 349.659,-684.401 349.659,-684.401"/>
<polygon fill="#b6ae2f" stroke="#b6ae2f" points="349.659,-659.786 354.159,-649.786 349.659,-654.786 349.659,-649.786 349.659,-649.786 349.659,-649.786 349.659,-654.786 345.159,-649.786 349.659,-659.786 349.659,-659.786"/>
</g>
<!-- Plan -->
<g id="node7" class="node"><title>Plan</title>
<path fill="none" stroke="black" d="M267.202,-290.5C267.202,-290.5 380.116,-290.5 380.116,-290.5 386.116,-290.5 392.116,-296.5 392.116,-302.5 392.116,-302.5 392.116,-378.5 392.116,-378.5 392.116,-384.5 386.116,-390.5 380.116,-390.5 380.116,-390.5 267.202,-390.5 267.202,-390.5 261.202,-390.5 255.202,-384.5 255.202,-378.5 255.202,-378.5 255.202,-302.5 255.202,-302.5 255.202,-296.5 261.202,-290.5 267.202,-290.5"/>
<text text-anchor="middle" x="323.659" y="-375.3" font-family="Times,serif" font-size="14.00">Plan</text>
<polyline fill="none" stroke="black" points="255.202,-368.5 392.116,-368.5 "/>
<text text-anchor="start" x="263.202" y="-353.3" font-family="Times,serif" font-size="14.00">id :integer</text>
<text text-anchor="start" x="263.202" y="-339.3" font-family="Times,serif" font-size="14.00">classroom_id :integer</text>
<text text-anchor="start" x="263.202" y="-325.3" font-family="Times,serif" font-size="14.00">created_at :datetime</text>
<text text-anchor="start" x="263.202" y="-311.3" font-family="Times,serif" font-size="14.00">updated_at :datetime</text>
<text text-anchor="start" x="263.202" y="-297.3" font-family="Times,serif" font-size="14.00">period_id :integer</text>
</g>
<!-- Classroom&#45;&gt;Plan -->
<g id="edge4" class="edge"><title>Classroom&#45;&gt;Plan</title>
<path fill="none" stroke="#c2b103" d="M408.498,-687.624C415.498,-678.111 421.592,-667.791 425.659,-657 441.49,-614.996 432.984,-600.287 425.659,-556 414.397,-487.916 408.266,-469.82 375.659,-409 373.913,-405.745 372.014,-402.482 370.007,-399.245"/>
<ellipse fill="none" stroke="#c2b103" cx="405.964" cy="-690.91" rx="4.00002" ry="4.00002"/>
<polygon fill="#c2b103" stroke="#c2b103" points="369.935,-399.135 368.245,-388.3 367.205,-394.946 364.475,-390.757 364.475,-390.757 364.475,-390.757 367.205,-394.946 360.705,-393.214 369.935,-399.135 369.935,-399.135"/>
</g>
<!-- Student -->
<g id="node9" class="node"><title>Student</title>
<path fill="none" stroke="black" d="M233.202,-409.5C233.202,-409.5 346.116,-409.5 346.116,-409.5 352.116,-409.5 358.116,-415.5 358.116,-421.5 358.116,-421.5 358.116,-525.5 358.116,-525.5 358.116,-531.5 352.116,-537.5 346.116,-537.5 346.116,-537.5 233.202,-537.5 233.202,-537.5 227.202,-537.5 221.202,-531.5 221.202,-525.5 221.202,-525.5 221.202,-421.5 221.202,-421.5 221.202,-415.5 227.202,-409.5 233.202,-409.5"/>
<text text-anchor="middle" x="289.659" y="-522.3" font-family="Times,serif" font-size="14.00">Student</text>
<polyline fill="none" stroke="black" points="221.202,-515.5 358.116,-515.5 "/>
<text text-anchor="start" x="229.202" y="-500.3" font-family="Times,serif" font-size="14.00">id :integer</text>
<text text-anchor="start" x="229.202" y="-486.3" font-family="Times,serif" font-size="14.00">classroom_id :integer</text>
<text text-anchor="start" x="229.202" y="-472.3" font-family="Times,serif" font-size="14.00">created_at :datetime</text>
<text text-anchor="start" x="229.202" y="-458.3" font-family="Times,serif" font-size="14.00">updated_at :datetime</text>
<text text-anchor="start" x="229.202" y="-444.3" font-family="Times,serif" font-size="14.00">first_name :string</text>
<text text-anchor="start" x="229.202" y="-430.3" font-family="Times,serif" font-size="14.00">last_name :string</text>
<text text-anchor="start" x="229.202" y="-416.3" font-family="Times,serif" font-size="14.00">inactive :boolean</text>
</g>
<!-- Classroom&#45;&gt;Student -->
<g id="edge2" class="edge"><title>Classroom&#45;&gt;Student</title>
<path fill="none" stroke="#a0ae76" d="M290.819,-687.624C283.819,-678.111 277.726,-667.791 273.659,-657 260.642,-622.463 262.714,-581.737 268.87,-547.529"/>
<ellipse fill="none" stroke="#a0ae76" cx="293.353" cy="-690.91" rx="4.00002" ry="4.00002"/>
<polygon fill="#a0ae76" stroke="#a0ae76" points="268.891,-547.418 275.219,-538.462 269.846,-542.51 270.801,-537.602 270.801,-537.602 270.801,-537.602 269.846,-542.51 266.384,-536.743 268.891,-547.418 268.891,-547.418"/>
</g>
<!-- Period&#45;&gt;InventoryState -->
<g id="edge10" class="edge"><title>Period&#45;&gt;InventoryState</title>
<path fill="none" stroke="#12ba79" d="M370.169,-555.533C372.195,-549.678 374.081,-543.744 375.659,-538 405.001,-431.176 404.038,-400.729 400.659,-290 398.592,-222.279 393.325,-144.197 389.619,-94.6117"/>
<ellipse fill="none" stroke="#12ba79" cx="368.685" cy="-559.677" rx="4.00001" ry="4.00001"/>
<ellipse fill="#12ba79" stroke="#12ba79" cx="389.316" cy="-90.5907" rx="4" ry="4"/>
</g>
<!-- Period&#45;&gt;Plan -->
<g id="edge9" class="edge"><title>Period&#45;&gt;Plan</title>
<path fill="none" stroke="#b2bbf8" d="M359.647,-555.393C365.826,-515.23 370.542,-457.732 358.659,-409 357.791,-405.441 356.7,-401.861 355.445,-398.305"/>
<ellipse fill="none" stroke="#b2bbf8" cx="358.989" cy="-559.489" rx="4.00001" ry="4.00001"/>
<ellipse fill="#b2bbf8" stroke="#b2bbf8" cx="353.899" cy="-394.31" rx="4.00001" ry="4.00001"/>
</g>
<!-- Plan&#45;&gt;Assignment -->
<g id="edge11" class="edge"><title>Plan&#45;&gt;Assignment</title>
<path fill="none" stroke="#0702b8" d="M287.825,-283.51C283.2,-276.283 278.413,-268.803 273.652,-261.364"/>
<ellipse fill="none" stroke="#0702b8" cx="290.069" cy="-287.015" rx="4.00002" ry="4.00002"/>
<polygon fill="#0702b8" stroke="#0702b8" points="273.477,-261.091 271.877,-250.243 270.782,-256.88 268.087,-252.669 268.087,-252.669 268.087,-252.669 270.782,-256.88 264.296,-255.094 273.477,-261.091 273.477,-261.091"/>
</g>
<!-- Plan&#45;&gt;InventoryState -->
<g id="edge12" class="edge"><title>Plan&#45;&gt;InventoryState</title>
<path fill="none" stroke="#a4f5cd" d="M335.621,-282.583C347.039,-228.255 364.08,-147.171 375.032,-95.0607"/>
<ellipse fill="none" stroke="#a4f5cd" cx="334.789" cy="-286.541" rx="4.00001" ry="4.00001"/>
<ellipse fill="#a4f5cd" stroke="#a4f5cd" cx="375.913" cy="-90.8691" rx="4.00001" ry="4.00001"/>
</g>
<!-- School -->
<g id="node8" class="node"><title>School</title>
<path fill="none" stroke="black" d="M295.153,-832.5C295.153,-832.5 404.164,-832.5 404.164,-832.5 410.164,-832.5 416.164,-838.5 416.164,-844.5 416.164,-844.5 416.164,-906.5 416.164,-906.5 416.164,-912.5 410.164,-918.5 404.164,-918.5 404.164,-918.5 295.153,-918.5 295.153,-918.5 289.153,-918.5 283.153,-912.5 283.153,-906.5 283.153,-906.5 283.153,-844.5 283.153,-844.5 283.153,-838.5 289.153,-832.5 295.153,-832.5"/>
<text text-anchor="middle" x="349.659" y="-903.3" font-family="Times,serif" font-size="14.00">School</text>
<polyline fill="none" stroke="black" points="283.153,-896.5 416.164,-896.5 "/>
<text text-anchor="start" x="291.153" y="-881.3" font-family="Times,serif" font-size="14.00">id :integer</text>
<text text-anchor="start" x="291.153" y="-867.3" font-family="Times,serif" font-size="14.00">name :string</text>
<text text-anchor="start" x="291.153" y="-853.3" font-family="Times,serif" font-size="14.00">created_at :datetime</text>
<text text-anchor="start" x="291.153" y="-839.3" font-family="Times,serif" font-size="14.00">updated_at :datetime</text>
</g>
<!-- School&#45;&gt;Classroom -->
<g id="edge13" class="edge"><title>School&#45;&gt;Classroom</title>
<path fill="none" stroke="#7257b5" d="M349.659,-824.204C349.659,-817.809 349.659,-811.219 349.659,-804.701"/>
<ellipse fill="none" stroke="#7257b5" cx="349.659" cy="-828.261" rx="4" ry="4"/>
<polygon fill="#7257b5" stroke="#7257b5" points="349.659,-804.557 354.159,-794.557 349.659,-799.557 349.659,-794.557 349.659,-794.557 349.659,-794.557 349.659,-799.557 345.159,-794.557 349.659,-804.557 349.659,-804.557"/>
</g>
<!-- Student&#45;&gt;Assignment -->
<g id="edge14" class="edge"><title>Student&#45;&gt;Assignment</title>
<path fill="none" stroke="#c8e4d2" d="M250.381,-401.965C248.999,-398.308 247.744,-394.641 246.659,-391 234.356,-349.734 229.478,-301.801 227.735,-263.04"/>
<ellipse fill="none" stroke="#c8e4d2" cx="251.894" cy="-405.733" rx="4.00001" ry="4.00001"/>
<polygon fill="#c8e4d2" stroke="#c8e4d2" points="227.729,-262.873 231.837,-252.705 227.534,-257.877 227.34,-252.88 227.34,-252.88 227.34,-252.88 227.534,-257.877 222.844,-253.055 227.729,-262.873 227.729,-262.873"/>
</g>
</g>
</svg>
