<?xml version="1.0" encoding="UTF-8" standalone="no"?>
<!DOCTYPE svg PUBLIC "-//W3C//DTD SVG 1.1//EN"
 "http://www.w3.org/Graphics/SVG/1.1/DTD/svg11.dtd">
<!-- Generated by graphviz version 2.38.0 (20140413.2041)
 -->
<!-- Title: models_diagram Pages: 1 -->
<svg width="479pt" height="481pt"
 viewBox="0.00 0.00 478.82 481.00" xmlns="http://www.w3.org/2000/svg" xmlns:xlink="http://www.w3.org/1999/xlink">
<g id="graph0" class="graph" transform="scale(1 1) rotate(0) translate(4 477)">
<title>models_diagram</title>
<polygon fill="white" stroke="none" points="-4,4 -4,-477 474.817,-477 474.817,4 -4,4"/>
<!-- _diagram_info -->
<g id="node1" class="node"><title>_diagram_info</title>
<text text-anchor="start" x="8" y="-458.6" font-family="Times,serif" font-size="13.00">Models diagram</text>
<text text-anchor="start" x="8" y="-445.6" font-family="Times,serif" font-size="13.00">Date: Jan 25 2015 &#45; 20:17</text>
<text text-anchor="start" x="8" y="-432.6" font-family="Times,serif" font-size="13.00">Migration version: 20150126035550</text>
<text text-anchor="start" x="8" y="-419.6" font-family="Times,serif" font-size="13.00">Generated by RailRoady 1.3.0</text>
<text text-anchor="start" x="8" y="-406.6" font-family="Times,serif" font-size="13.00">http://railroady.prestonlee.com</text>
</g>
<!-- Assignment -->
<g id="node2" class="node"><title>Assignment</title>
<ellipse fill="none" stroke="black" cx="267.688" cy="-18" rx="52.2192" ry="18"/>
<text text-anchor="middle" x="267.688" y="-13.8" font-family="Times,serif" font-size="14.00">Assignment</text>
</g>
<!-- BookBag -->
<g id="node3" class="node"><title>BookBag</title>
<ellipse fill="none" stroke="black" cx="187.688" cy="-272" rx="43.5319" ry="18"/>
<text text-anchor="middle" x="187.688" y="-267.8" font-family="Times,serif" font-size="14.00">BookBag</text>
</g>
<!-- Classroom -->
<g id="node4" class="node"><title>Classroom</title>
<ellipse fill="none" stroke="black" cx="259.688" cy="-345" rx="47.8754" ry="18"/>
<text text-anchor="middle" x="259.688" y="-340.8" font-family="Times,serif" font-size="14.00">Classroom</text>
</g>
<!-- Classroom&#45;&gt;Assignment -->
<g id="edge4" class="edge"><title>Classroom&#45;&gt;Assignment</title>
<path fill="none" stroke="#cda972" d="M202.678,-340.106C170.889,-335.885 131.598,-327.128 100.688,-309 82.2219,-298.17 68.6877,-294.407 68.6877,-273 68.6877,-273 68.6877,-273 68.6877,-90 68.6877,-68.5927 82.1675,-64.7365 100.688,-54 132.623,-35.4868 173.036,-26.7039 206.108,-22.565"/>
<polygon fill="#cda972" stroke="#cda972" points="202.788,-340.12 212.173,-345.791 207.752,-340.722 212.715,-341.324 212.715,-341.324 212.715,-341.324 207.752,-340.722 213.257,-336.856 202.788,-340.12 202.788,-340.12"/>
<polygon fill="#cda972" stroke="#cda972" points="206.182,-22.5565 216.628,-25.895 211.15,-21.9902 216.118,-21.4239 216.118,-21.4239 216.118,-21.4239 211.15,-21.9902 215.608,-16.9529 206.182,-22.5565 206.182,-22.5565"/>
</g>
<!-- Classroom&#45;&gt;Assignment -->
<g id="edge6" class="edge"><title>Classroom&#45;&gt;Assignment</title>
<path fill="none" stroke="#fb43ca" d="M203.119,-338.739C162.426,-331.472 114.688,-314.172 114.688,-273 114.688,-273 114.688,-273 114.688,-90 114.688,-47.5731 163.695,-30.428 206.237,-23.5375"/>
<polygon fill="#fb43ca" stroke="#fb43ca" points="203.139,-338.742 212.292,-344.782 208.075,-339.541 213.011,-340.34 213.011,-340.34 213.011,-340.34 208.075,-339.541 213.73,-335.898 203.139,-338.742 203.139,-338.742"/>
<polygon fill="#fb43ca" stroke="#fb43ca" points="206.42,-23.511 216.964,-26.5233 211.367,-22.7906 216.315,-22.0703 216.315,-22.0703 216.315,-22.0703 211.367,-22.7906 215.667,-17.6172 206.42,-23.511 206.42,-23.511"/>
<text text-anchor="middle" x="175.729" y="-159.8" font-family="Times,serif" font-size="14.00">returned_assignments</text>
</g>
<!-- Classroom&#45;&gt;BookBag -->
<g id="edge2" class="edge"><title>Classroom&#45;&gt;BookBag</title>
<path fill="none" stroke="#45b633" d="M237.561,-322.18C229.174,-313.91 219.601,-304.47 211.099,-296.086"/>
<ellipse fill="none" stroke="#45b633" cx="240.502" cy="-325.08" rx="4.00002" ry="4.00002"/>
<polygon fill="#45b633" stroke="#45b633" points="211.081,-296.069 207.121,-285.843 207.521,-292.558 203.961,-289.047 203.961,-289.047 203.961,-289.047 207.521,-292.558 200.801,-292.251 211.081,-296.069 211.081,-296.069"/>
</g>
<!-- InventoryState -->
<g id="node5" class="node"><title>InventoryState</title>
<ellipse fill="none" stroke="black" cx="267.688" cy="-91" rx="62.3407" ry="18"/>
<text text-anchor="middle" x="267.688" y="-86.8" font-family="Times,serif" font-size="14.00">InventoryState</text>
</g>
<!-- Classroom&#45;&gt;InventoryState -->
<g id="edge5" class="edge"><title>Classroom&#45;&gt;InventoryState</title>
<path fill="none" stroke="#218552" d="M260.561,-316.482C262.104,-267.887 265.292,-167.453 266.826,-119.133"/>
<polygon fill="#218552" stroke="#218552" points="260.555,-316.684 255.74,-326.536 260.396,-321.682 260.238,-326.679 260.238,-326.679 260.238,-326.679 260.396,-321.682 264.735,-326.822 260.555,-316.684 260.555,-316.684"/>
<polygon fill="#218552" stroke="#218552" points="266.827,-119.104 271.642,-109.252 266.986,-114.106 267.145,-109.109 267.145,-109.109 267.145,-109.109 266.986,-114.106 262.647,-108.966 266.827,-119.104 266.827,-119.104"/>
</g>
<!-- Period -->
<g id="node6" class="node"><title>Period</title>
<ellipse fill="none" stroke="black" cx="320.688" cy="-272" rx="33.3925" ry="18"/>
<text text-anchor="middle" x="320.688" y="-267.8" font-family="Times,serif" font-size="14.00">Period</text>
</g>
<!-- Classroom&#45;&gt;Period -->
<g id="edge7" class="edge"><title>Classroom&#45;&gt;Period</title>
<path fill="none" stroke="#0d6a99" d="M280.542,-319.728C286.972,-312.243 294.041,-304.015 300.431,-296.578"/>
<polygon fill="#0d6a99" stroke="#0d6a99" points="280.352,-319.948 270.422,-324.6 277.094,-323.74 273.836,-327.533 273.836,-327.533 273.836,-327.533 277.094,-323.74 277.249,-330.465 280.352,-319.948 280.352,-319.948"/>
<polygon fill="#0d6a99" stroke="#0d6a99" points="300.519,-296.475 310.449,-291.822 303.778,-292.682 307.036,-288.89 307.036,-288.89 307.036,-288.89 303.778,-292.682 303.623,-285.957 300.519,-296.475 300.519,-296.475"/>
</g>
<!-- Plan -->
<g id="node7" class="node"><title>Plan</title>
<ellipse fill="none" stroke="black" cx="357.688" cy="-164" rx="27" ry="18"/>
<text text-anchor="middle" x="357.688" y="-159.8" font-family="Times,serif" font-size="14.00">Plan</text>
</g>
<!-- Classroom&#45;&gt;Plan -->
<g id="edge3" class="edge"><title>Classroom&#45;&gt;Plan</title>
<path fill="none" stroke="#60788a" d="M306.458,-331.616C327.508,-323.453 350.357,-310.387 362.688,-290 380.747,-260.141 374.168,-218.523 366.764,-191.669"/>
<ellipse fill="none" stroke="#60788a" cx="302.564" cy="-333.035" rx="4.00001" ry="4.00001"/>
<polygon fill="#60788a" stroke="#60788a" points="366.684,-191.401 368.14,-180.532 365.256,-186.609 363.828,-181.817 363.828,-181.817 363.828,-181.817 365.256,-186.609 359.515,-183.103 366.684,-191.401 366.684,-191.401"/>
</g>
<!-- Student -->
<g id="node9" class="node"><title>Student</title>
<ellipse fill="none" stroke="black" cx="433.688" cy="-218" rx="37.2594" ry="18"/>
<text text-anchor="middle" x="433.688" y="-213.8" font-family="Times,serif" font-size="14.00">Student</text>
</g>
<!-- Classroom&#45;&gt;Student -->
<g id="edge1" class="edge"><title>Classroom&#45;&gt;Student</title>
<path fill="none" stroke="#643c83" d="M315.242,-341.046C342.223,-337.002 373.516,-328.118 395.688,-309 414.283,-292.966 423.999,-266.286 428.931,-246.128"/>
<ellipse fill="none" stroke="#643c83" cx="310.986" cy="-341.618" rx="4.00001" ry="4.00001"/>
<polygon fill="#643c83" stroke="#643c83" points="428.951,-246.039 435.492,-237.237 430.024,-241.155 431.097,-236.272 431.097,-236.272 431.097,-236.272 430.024,-241.155 426.701,-235.306 428.951,-246.039 428.951,-246.039"/>
</g>
<!-- InventoryState&#45;&gt;Assignment -->
<g id="edge8" class="edge"><title>InventoryState&#45;&gt;Assignment</title>
<path fill="none" stroke="#1562a6" d="M267.688,-64.791C267.688,-58.832 267.688,-52.4496 267.688,-46.3988"/>
<ellipse fill="none" stroke="#1562a6" cx="267.688" cy="-68.8129" rx="4" ry="4"/>
<polygon fill="#1562a6" stroke="#1562a6" points="267.688,-46.0288 272.188,-36.0288 267.688,-41.0288 267.688,-36.0288 267.688,-36.0288 267.688,-36.0288 267.688,-41.0288 263.188,-36.0289 267.688,-46.0288 267.688,-46.0288"/>
</g>
<!-- Period&#45;&gt;InventoryState -->
<g id="edge10" class="edge"><title>Period&#45;&gt;InventoryState</title>
<path fill="none" stroke="#7b9e83" d="M313.63,-246.221C305.407,-217.492 291.332,-168.738 278.688,-127 277.691,-123.708 276.625,-120.248 275.563,-116.837"/>
<ellipse fill="none" stroke="#7b9e83" cx="314.787" cy="-250.272" rx="4.00001" ry="4.00001"/>
<ellipse fill="#7b9e83" stroke="#7b9e83" cx="274.326" cy="-112.885" rx="4.00001" ry="4.00001"/>
</g>
<!-- Period&#45;&gt;Plan -->
<g id="edge9" class="edge"><title>Period&#45;&gt;Plan</title>
<path fill="none" stroke="#10fd7e" d="M329.336,-246.223C335.3,-229.137 343.193,-206.526 349.136,-189.5"/>
<ellipse fill="none" stroke="#10fd7e" cx="327.951" cy="-250.193" rx="4.00001" ry="4.00001"/>
<ellipse fill="#10fd7e" stroke="#10fd7e" cx="350.562" cy="-185.416" rx="4.00001" ry="4.00001"/>
</g>
<!-- Plan&#45;&gt;Assignment -->
<g id="edge11" class="edge"><title>Plan&#45;&gt;Assignment</title>
<path fill="none" stroke="#ccf763" d="M357.021,-137.532C355.458,-118.461 350.983,-92.4242 338.688,-73 330.074,-59.3912 316.741,-47.9274 303.945,-39.1119"/>
<ellipse fill="none" stroke="#ccf763" cx="357.293" cy="-141.764" rx="4" ry="4"/>
<polygon fill="#ccf763" stroke="#ccf763" points="303.615,-38.897 297.693,-29.6677 299.426,-36.1675 295.236,-33.438 295.236,-33.438 295.236,-33.438 299.426,-36.1675 292.78,-37.2084 303.615,-38.897 303.615,-38.897"/>
</g>
<!-- Plan&#45;&gt;InventoryState -->
<g id="edge12" class="edge"><title>Plan&#45;&gt;InventoryState</title>
<path fill="none" stroke="#1054e0" d="M336.436,-143.622C330.184,-138.118 323.257,-132.208 316.688,-127 310.672,-122.23 304.075,-117.317 297.726,-112.734"/>
<ellipse fill="none" stroke="#1054e0" cx="339.437" cy="-146.291" rx="4.00002" ry="4.00002"/>
<ellipse fill="#1054e0" stroke="#1054e0" cx="294.229" cy="-110.238" rx="4.00002" ry="4.00002"/>
</g>
<!-- School -->
<g id="node8" class="node"><title>School</title>
<ellipse fill="none" stroke="black" cx="259.688" cy="-436.5" rx="34.8458" ry="18"/>
<text text-anchor="middle" x="259.688" y="-432.3" font-family="Times,serif" font-size="14.00">School</text>
</g>
<!-- School&#45;&gt;Classroom -->
<g id="edge13" class="edge"><title>School&#45;&gt;Classroom</title>
<path fill="none" stroke="#7bcc2a" d="M259.688,-409.903C259.688,-398.441 259.688,-384.914 259.688,-373.263"/>
<ellipse fill="none" stroke="#7bcc2a" cx="259.688" cy="-414.243" rx="4" ry="4"/>
<polygon fill="#7bcc2a" stroke="#7bcc2a" points="259.688,-373.204 264.188,-363.203 259.688,-368.204 259.688,-363.204 259.688,-363.204 259.688,-363.204 259.688,-368.204 255.188,-363.204 259.688,-373.204 259.688,-373.204"/>
</g>
<!-- Student&#45;&gt;Assignment -->
<g id="edge14" class="edge"><title>Student&#45;&gt;Assignment</title>
<path fill="none" stroke="#b55d7b" d="M424.209,-192.283C411.94,-162.197 388.549,-110.745 358.688,-73 346.282,-57.3185 327.975,-45.21 311.028,-36.4711"/>
<ellipse fill="none" stroke="#b55d7b" cx="425.739" cy="-196.098" rx="4.00001" ry="4.00001"/>
<polygon fill="#b55d7b" stroke="#b55d7b" points="310.783,-36.3517 303.774,-27.9183 306.291,-34.1566 301.799,-31.9614 301.799,-31.9614 301.799,-31.9614 306.291,-34.1566 299.823,-36.0046 310.783,-36.3517 310.783,-36.3517"/>
</g>
</g>
</svg>
