<?xml version="1.0" encoding="UTF-8" standalone="no"?>
<!DOCTYPE svg PUBLIC "-//W3C//DTD SVG 1.1//EN"
 "http://www.w3.org/Graphics/SVG/1.1/DTD/svg11.dtd">
<!-- Generated by graphviz version 2.38.0 (20140413.2041)
 -->
<!-- Title: models_diagram Pages: 1 -->
<svg width="476pt" height="481pt"
 viewBox="0.00 0.00 475.82 481.00" xmlns="http://www.w3.org/2000/svg" xmlns:xlink="http://www.w3.org/1999/xlink">
<g id="graph0" class="graph" transform="scale(1 1) rotate(0) translate(4 477)">
<title>models_diagram</title>
<polygon fill="white" stroke="none" points="-4,4 -4,-477 471.817,-477 471.817,4 -4,4"/>
<!-- _diagram_info -->
<g id="node1" class="node"><title>_diagram_info</title>
<text text-anchor="start" x="8" y="-458.6" font-family="Times,serif" font-size="13.00">Models diagram</text>
<text text-anchor="start" x="8" y="-445.6" font-family="Times,serif" font-size="13.00">Date: Jan 26 2015 &#45; 00:47</text>
<text text-anchor="start" x="8" y="-432.6" font-family="Times,serif" font-size="13.00">Migration version: 20150126084516</text>
<text text-anchor="start" x="8" y="-419.6" font-family="Times,serif" font-size="13.00">Generated by RailRoady 1.3.0</text>
<text text-anchor="start" x="8" y="-406.6" font-family="Times,serif" font-size="13.00">http://railroady.prestonlee.com</text>
</g>
<!-- Assignment -->
<g id="node2" class="node"><title>Assignment</title>
<ellipse fill="none" stroke="black" cx="266.688" cy="-18" rx="52.2192" ry="18"/>
<text text-anchor="middle" x="266.688" y="-13.8" font-family="Times,serif" font-size="14.00">Assignment</text>
</g>
<!-- BookBag -->
<g id="node3" class="node"><title>BookBag</title>
<ellipse fill="none" stroke="black" cx="166.688" cy="-272" rx="43.5319" ry="18"/>
<text text-anchor="middle" x="166.688" y="-267.8" font-family="Times,serif" font-size="14.00">BookBag</text>
</g>
<!-- Classroom -->
<g id="node4" class="node"><title>Classroom</title>
<ellipse fill="none" stroke="black" cx="259.688" cy="-345" rx="47.8754" ry="18"/>
<text text-anchor="middle" x="259.688" y="-340.8" font-family="Times,serif" font-size="14.00">Classroom</text>
</g>
<!-- Classroom&#45;&gt;Assignment -->
<g id="edge3" class="edge"><title>Classroom&#45;&gt;Assignment</title>
<path fill="none" stroke="#e94c5f" d="M201.886,-342.088C165.115,-338.683 117.64,-330.09 80.6877,-309 62.0955,-298.389 48.6877,-294.407 48.6877,-273 48.6877,-273 48.6877,-273 48.6877,-90 48.6877,-68.5927 62.0579,-64.5452 80.6877,-54 118.195,-32.7691 166.097,-24.106 203.895,-20.7057"/>
<polygon fill="#e94c5f" stroke="#e94c5f" points="201.99,-342.096 211.587,-347.401 206.973,-342.506 211.956,-342.916 211.956,-342.916 211.956,-342.916 206.973,-342.506 212.325,-338.432 201.99,-342.096 201.99,-342.096"/>
<polygon fill="#e94c5f" stroke="#e94c5f" points="204.303,-20.6734 214.628,-24.3659 209.287,-20.2767 214.271,-19.8801 214.271,-19.8801 214.271,-19.8801 209.287,-20.2767 213.914,-15.3943 204.303,-20.6734 204.303,-20.6734"/>
</g>
<!-- Classroom&#45;&gt;Assignment -->
<g id="edge4" class="edge"><title>Classroom&#45;&gt;Assignment</title>
<path fill="none" stroke="#43bcaf" d="M201.72,-342.012C154.181,-336.906 94.6877,-320.938 94.6877,-273 94.6877,-273 94.6877,-273 94.6877,-90 94.6877,-41.0387 154.973,-25.165 204.162,-20.3621"/>
<polygon fill="#43bcaf" stroke="#43bcaf" points="202.006,-342.039 211.544,-347.45 206.985,-342.504 211.963,-342.969 211.963,-342.969 211.963,-342.969 206.985,-342.504 212.382,-338.489 202.006,-342.039 202.006,-342.039"/>
<polygon fill="#43bcaf" stroke="#43bcaf" points="204.183,-20.3605 214.526,-24.004 209.165,-19.9402 214.147,-19.5199 214.147,-19.5199 214.147,-19.5199 209.165,-19.9402 213.769,-15.0358 204.183,-20.3605 204.183,-20.3605"/>
<text text-anchor="middle" x="155.729" y="-159.8" font-family="Times,serif" font-size="14.00">returned_assignments</text>
</g>
<!-- Classroom&#45;&gt;BookBag -->
<g id="edge2" class="edge"><title>Classroom&#45;&gt;BookBag</title>
<path fill="none" stroke="#a0f723" d="M232.962,-323.597C220.928,-314.409 206.721,-303.563 194.554,-294.274"/>
<ellipse fill="none" stroke="#a0f723" cx="236.329" cy="-326.167" rx="4.00002" ry="4.00002"/>
<polygon fill="#a0f723" stroke="#a0f723" points="194.457,-294.2 189.239,-284.555 190.483,-291.166 186.508,-288.132 186.508,-288.132 186.508,-288.132 190.483,-291.166 183.778,-291.709 194.457,-294.2 194.457,-294.2"/>
</g>
<!-- InventoryState -->
<g id="node5" class="node"><title>InventoryState</title>
<ellipse fill="none" stroke="black" cx="266.688" cy="-91" rx="62.3407" ry="18"/>
<text text-anchor="middle" x="266.688" y="-86.8" font-family="Times,serif" font-size="14.00">InventoryState</text>
</g>
<!-- Classroom&#45;&gt;InventoryState -->
<g id="edge6" class="edge"><title>Classroom&#45;&gt;InventoryState</title>
<path fill="none" stroke="#6753c6" d="M258.482,-316.759C258.156,-308.197 257.849,-298.706 257.688,-290 256.56,-229.095 261.296,-157.743 264.325,-119.515"/>
<polygon fill="#6753c6" stroke="#6753c6" points="258.491,-316.988 254.4,-327.162 258.694,-321.984 258.896,-326.98 258.896,-326.98 258.896,-326.98 258.694,-321.984 263.392,-326.798 258.491,-316.988 258.491,-316.988"/>
<polygon fill="#6753c6" stroke="#6753c6" points="264.353,-119.172 269.65,-109.57 264.759,-114.189 265.165,-109.205 265.165,-109.205 265.165,-109.205 264.759,-114.189 260.679,-108.84 264.353,-119.172 264.353,-119.172"/>
</g>
<!-- Period -->
<g id="node6" class="node"><title>Period</title>
<ellipse fill="none" stroke="black" cx="299.688" cy="-272" rx="33.3925" ry="18"/>
<text text-anchor="middle" x="299.688" y="-267.8" font-family="Times,serif" font-size="14.00">Period</text>
</g>
<!-- Classroom&#45;&gt;Period -->
<g id="edge5" class="edge"><title>Classroom&#45;&gt;Period</title>
<path fill="none" stroke="#ec2f2a" d="M273.102,-320.19C276.976,-313.314 281.221,-305.779 285.159,-298.788"/>
<ellipse fill="none" stroke="#ec2f2a" cx="271.131" cy="-323.689" rx="4.00002" ry="4.00002"/>
<polygon fill="#ec2f2a" stroke="#ec2f2a" points="285.368,-298.418 294.197,-291.914 287.822,-294.061 290.276,-289.705 290.276,-289.705 290.276,-289.705 287.822,-294.061 286.356,-287.496 285.368,-298.418 285.368,-298.418"/>
</g>
<!-- Plan -->
<g id="node7" class="node"><title>Plan</title>
<ellipse fill="none" stroke="black" cx="356.688" cy="-164" rx="27" ry="18"/>
<text text-anchor="middle" x="356.688" y="-159.8" font-family="Times,serif" font-size="14.00">Plan</text>
</g>
<!-- Classroom&#45;&gt;Plan -->
<g id="edge7" class="edge"><title>Classroom&#45;&gt;Plan</title>
<path fill="none" stroke="#36f32c" d="M295.103,-324.661C308.987,-316.112 323.64,-304.627 332.688,-290 350.978,-260.429 352.329,-219.34 352.89,-192.467"/>
<polygon fill="#36f32c" stroke="#36f32c" points="294.803,-324.834 283.896,-325.966 290.48,-327.346 286.156,-329.857 286.156,-329.857 286.156,-329.857 290.48,-327.346 288.417,-333.748 294.803,-324.834 294.803,-324.834"/>
<polygon fill="#36f32c" stroke="#36f32c" points="352.895,-192.234 357.618,-182.337 353.007,-187.235 353.119,-182.237 353.119,-182.237 353.119,-182.237 353.007,-187.235 348.62,-182.136 352.895,-192.234 352.895,-192.234"/>
</g>
<!-- Student -->
<g id="node9" class="node"><title>Student</title>
<ellipse fill="none" stroke="black" cx="430.688" cy="-218" rx="37.2594" ry="18"/>
<text text-anchor="middle" x="430.688" y="-213.8" font-family="Times,serif" font-size="14.00">Student</text>
</g>
<!-- Classroom&#45;&gt;Student -->
<g id="edge1" class="edge"><title>Classroom&#45;&gt;Student</title>
<path fill="none" stroke="#6a2315" d="M314.932,-340.62C341.115,-336.443 371.271,-327.569 392.688,-309 411.239,-292.915 420.961,-266.242 425.907,-246.099"/>
<ellipse fill="none" stroke="#6a2315" cx="310.906" cy="-341.2" rx="4.00001" ry="4.00001"/>
<polygon fill="#6a2315" stroke="#6a2315" points="425.925,-246.017 432.474,-237.221 427.002,-241.134 428.079,-236.252 428.079,-236.252 428.079,-236.252 427.002,-241.134 423.685,-235.282 425.925,-246.017 425.925,-246.017"/>
</g>
<!-- InventoryState&#45;&gt;Assignment -->
<g id="edge8" class="edge"><title>InventoryState&#45;&gt;Assignment</title>
<path fill="none" stroke="#b77659" d="M266.688,-64.791C266.688,-58.832 266.688,-52.4496 266.688,-46.3988"/>
<ellipse fill="none" stroke="#b77659" cx="266.688" cy="-68.8129" rx="4" ry="4"/>
<polygon fill="#b77659" stroke="#b77659" points="266.688,-46.0288 271.188,-36.0288 266.688,-41.0288 266.688,-36.0288 266.688,-36.0288 266.688,-36.0288 266.688,-41.0288 262.188,-36.0289 266.688,-46.0288 266.688,-46.0288"/>
</g>
<!-- Period&#45;&gt;InventoryState -->
<g id="edge10" class="edge"><title>Period&#45;&gt;InventoryState</title>
<path fill="none" stroke="#463ce4" d="M294.997,-245.557C288.703,-211.416 277.592,-151.149 271.325,-117.156"/>
<ellipse fill="none" stroke="#463ce4" cx="295.798" cy="-249.903" rx="4.00001" ry="4.00001"/>
<ellipse fill="#463ce4" stroke="#463ce4" cx="270.568" cy="-113.045" rx="4.00001" ry="4.00001"/>
</g>
<!-- Period&#45;&gt;Plan -->
<g id="edge9" class="edge"><title>Period&#45;&gt;Plan</title>
<path fill="none" stroke="#238f8c" d="M312.512,-247.152C321.996,-229.515 334.841,-205.627 344.236,-188.156"/>
<ellipse fill="none" stroke="#238f8c" cx="310.488" cy="-250.915" rx="4.00002" ry="4.00002"/>
<ellipse fill="#238f8c" stroke="#238f8c" cx="346.136" cy="-184.622" rx="4.00002" ry="4.00002"/>
</g>
<!-- Plan&#45;&gt;Assignment -->
<g id="edge12" class="edge"><title>Plan&#45;&gt;Assignment</title>
<path fill="none" stroke="#a5f3d0" d="M356.021,-137.532C354.458,-118.461 349.983,-92.4242 337.688,-73 329.074,-59.3912 315.741,-47.9274 302.945,-39.1119"/>
<ellipse fill="none" stroke="#a5f3d0" cx="356.293" cy="-141.764" rx="4" ry="4"/>
<polygon fill="#a5f3d0" stroke="#a5f3d0" points="302.615,-38.897 296.693,-29.6677 298.426,-36.1675 294.236,-33.438 294.236,-33.438 294.236,-33.438 298.426,-36.1675 291.78,-37.2084 302.615,-38.897 302.615,-38.897"/>
</g>
<!-- Plan&#45;&gt;Classroom -->
<g id="edge11" class="edge"><title>Plan&#45;&gt;Classroom</title>
<path fill="none" stroke="#e18a00" d="M366.121,-189.466C370.408,-216.2 369.674,-259.305 350.688,-290 339.86,-307.505 321.004,-320.51 303.157,-329.366"/>
<ellipse fill="none" stroke="#e18a00" cx="365.325" cy="-185.326" rx="4.00001" ry="4.00001"/>
<ellipse fill="#e18a00" stroke="#e18a00" cx="299.218" cy="-331.212" rx="4.00002" ry="4.00002"/>
</g>
<!-- Plan&#45;&gt;InventoryState -->
<g id="edge13" class="edge"><title>Plan&#45;&gt;InventoryState</title>
<path fill="none" stroke="#0216d0" d="M333.46,-144.676C321.218,-135.019 306.145,-123.128 293.42,-113.089"/>
<ellipse fill="none" stroke="#0216d0" cx="336.619" cy="-147.168" rx="4.00002" ry="4.00002"/>
<ellipse fill="#0216d0" stroke="#0216d0" cx="290.147" cy="-110.507" rx="4.00002" ry="4.00002"/>
</g>
<!-- School -->
<g id="node8" class="node"><title>School</title>
<ellipse fill="none" stroke="black" cx="259.688" cy="-436.5" rx="34.8458" ry="18"/>
<text text-anchor="middle" x="259.688" y="-432.3" font-family="Times,serif" font-size="14.00">School</text>
</g>
<!-- School&#45;&gt;Classroom -->
<g id="edge14" class="edge"><title>School&#45;&gt;Classroom</title>
<path fill="none" stroke="#8be926" d="M259.688,-409.903C259.688,-398.441 259.688,-384.914 259.688,-373.263"/>
<ellipse fill="none" stroke="#8be926" cx="259.688" cy="-414.243" rx="4" ry="4"/>
<polygon fill="#8be926" stroke="#8be926" points="259.688,-373.204 264.188,-363.203 259.688,-368.204 259.688,-363.204 259.688,-363.204 259.688,-363.204 259.688,-368.204 255.188,-363.204 259.688,-373.204 259.688,-373.204"/>
</g>
<!-- Student&#45;&gt;Assignment -->
<g id="edge15" class="edge"><title>Student&#45;&gt;Assignment</title>
<path fill="none" stroke="#d57940" d="M421.602,-192.266C409.801,-162.164 387.174,-110.695 357.688,-73 345.368,-57.2506 327.074,-45.132 310.113,-36.4037"/>
<ellipse fill="none" stroke="#d57940" cx="423.066" cy="-196.066" rx="4.00001" ry="4.00001"/>
<polygon fill="#d57940" stroke="#d57940" points="309.864,-36.2822 302.845,-27.8567 305.369,-34.0921 300.874,-31.902 300.874,-31.902 300.874,-31.902 305.369,-34.0921 298.903,-35.9474 309.864,-36.2822 309.864,-36.2822"/>
</g>
</g>
</svg>
