<?xml version="1.0" encoding="UTF-8" standalone="no"?>
<!DOCTYPE svg PUBLIC "-//W3C//DTD SVG 1.1//EN"
 "http://www.w3.org/Graphics/SVG/1.1/DTD/svg11.dtd">
<!-- Generated by graphviz version 2.38.0 (20140413.2041)
 -->
<!-- Title: models_diagram Pages: 1 -->
<svg width="641pt" height="941pt"
 viewBox="0.00 0.00 641.14 941.00" xmlns="http://www.w3.org/2000/svg" xmlns:xlink="http://www.w3.org/1999/xlink">
<g id="graph0" class="graph" transform="scale(1 1) rotate(0) translate(4 937)">
<title>models_diagram</title>
<polygon fill="white" stroke="none" points="-4,4 -4,-937 637.145,-937 637.145,4 -4,4"/>
<!-- _diagram_info -->
<g id="node1" class="node"><title>_diagram_info</title>
<text text-anchor="start" x="8" y="-911.6" font-family="Times,serif" font-size="13.00">Models diagram</text>
<text text-anchor="start" x="8" y="-898.6" font-family="Times,serif" font-size="13.00">Date: Jan 25 2015 &#45; 20:17</text>
<text text-anchor="start" x="8" y="-885.6" font-family="Times,serif" font-size="13.00">Migration version: 20150126035550</text>
<text text-anchor="start" x="8" y="-872.6" font-family="Times,serif" font-size="13.00">Generated by RailRoady 1.3.0</text>
<text text-anchor="start" x="8" y="-859.6" font-family="Times,serif" font-size="13.00">http://railroady.prestonlee.com</text>
</g>
<!-- Assignment -->
<g id="node2" class="node"><title>Assignment</title>
<path fill="none" stroke="black" d="M258.458,-0.5C258.458,-0.5 400.917,-0.5 400.917,-0.5 406.917,-0.5 412.917,-6.5 412.917,-12.5 412.917,-12.5 412.917,-130.5 412.917,-130.5 412.917,-136.5 406.917,-142.5 400.917,-142.5 400.917,-142.5 258.458,-142.5 258.458,-142.5 252.458,-142.5 246.458,-136.5 246.458,-130.5 246.458,-130.5 246.458,-12.5 246.458,-12.5 246.458,-6.5 252.458,-0.5 258.458,-0.5"/>
<text text-anchor="middle" x="329.688" y="-127.3" font-family="Times,serif" font-size="14.00">Assignment</text>
<polyline fill="none" stroke="black" points="246.458,-120.5 412.917,-120.5 "/>
<text text-anchor="start" x="254.458" y="-105.3" font-family="Times,serif" font-size="14.00">id :integer</text>
<text text-anchor="start" x="254.458" y="-91.3" font-family="Times,serif" font-size="14.00">student_id :integer</text>
<text text-anchor="start" x="254.458" y="-77.3" font-family="Times,serif" font-size="14.00">book_bag_id :integer</text>
<text text-anchor="start" x="254.458" y="-63.3" font-family="Times,serif" font-size="14.00">plan_id :integer</text>
<text text-anchor="start" x="254.458" y="-49.3" font-family="Times,serif" font-size="14.00">created_at :datetime</text>
<text text-anchor="start" x="254.458" y="-35.3" font-family="Times,serif" font-size="14.00">updated_at :datetime</text>
<text text-anchor="start" x="254.458" y="-21.3" font-family="Times,serif" font-size="14.00">returned_at :datetime</text>
<text text-anchor="start" x="254.458" y="-7.3" font-family="Times,serif" font-size="14.00">inventory_state_id :integer</text>
</g>
<!-- BookBag -->
<g id="node3" class="node"><title>BookBag</title>
<path fill="none" stroke="black" d="M139.231,-570.5C139.231,-570.5 252.145,-570.5 252.145,-570.5 258.145,-570.5 264.145,-576.5 264.145,-582.5 264.145,-582.5 264.145,-658.5 264.145,-658.5 264.145,-664.5 258.145,-670.5 252.145,-670.5 252.145,-670.5 139.231,-670.5 139.231,-670.5 133.231,-670.5 127.231,-664.5 127.231,-658.5 127.231,-658.5 127.231,-582.5 127.231,-582.5 127.231,-576.5 133.231,-570.5 139.231,-570.5"/>
<text text-anchor="middle" x="195.688" y="-655.3" font-family="Times,serif" font-size="14.00">BookBag</text>
<polyline fill="none" stroke="black" points="127.231,-648.5 264.145,-648.5 "/>
<text text-anchor="start" x="135.231" y="-633.3" font-family="Times,serif" font-size="14.00">id :integer</text>
<text text-anchor="start" x="135.231" y="-619.3" font-family="Times,serif" font-size="14.00">classroom_id :integer</text>
<text text-anchor="start" x="135.231" y="-605.3" font-family="Times,serif" font-size="14.00">created_at :datetime</text>
<text text-anchor="start" x="135.231" y="-591.3" font-family="Times,serif" font-size="14.00">updated_at :datetime</text>
<text text-anchor="start" x="135.231" y="-577.3" font-family="Times,serif" font-size="14.00">global_id :integer</text>
</g>
<!-- Classroom -->
<g id="node4" class="node"><title>Classroom</title>
<path fill="none" stroke="black" d="M237.182,-708.5C237.182,-708.5 346.193,-708.5 346.193,-708.5 352.193,-708.5 358.193,-714.5 358.193,-720.5 358.193,-720.5 358.193,-796.5 358.193,-796.5 358.193,-802.5 352.193,-808.5 346.193,-808.5 346.193,-808.5 237.182,-808.5 237.182,-808.5 231.182,-808.5 225.182,-802.5 225.182,-796.5 225.182,-796.5 225.182,-720.5 225.182,-720.5 225.182,-714.5 231.182,-708.5 237.182,-708.5"/>
<text text-anchor="middle" x="291.688" y="-793.3" font-family="Times,serif" font-size="14.00">Classroom</text>
<polyline fill="none" stroke="black" points="225.182,-786.5 358.193,-786.5 "/>
<text text-anchor="start" x="233.182" y="-771.3" font-family="Times,serif" font-size="14.00">id :integer</text>
<text text-anchor="start" x="233.182" y="-757.3" font-family="Times,serif" font-size="14.00">name :string</text>
<text text-anchor="start" x="233.182" y="-743.3" font-family="Times,serif" font-size="14.00">created_at :datetime</text>
<text text-anchor="start" x="233.182" y="-729.3" font-family="Times,serif" font-size="14.00">updated_at :datetime</text>
<text text-anchor="start" x="233.182" y="-715.3" font-family="Times,serif" font-size="14.00">school_id :integer</text>
</g>
<!-- Classroom&#45;&gt;Assignment -->
<g id="edge4" class="edge"><title>Classroom&#45;&gt;Assignment</title>
<path fill="none" stroke="#4a6468" d="M215.023,-747.567C172.671,-738.641 121.54,-721.776 85.6877,-690 60.5408,-667.712 53.6877,-655.103 53.6877,-621.5 53.6877,-621.5 53.6877,-621.5 53.6877,-222.5 53.6877,-137.514 155.96,-100.412 235.993,-84.3892"/>
<polygon fill="#4a6468" stroke="#4a6468" points="215.22,-747.606 224.146,-753.977 220.124,-748.585 225.027,-749.564 225.027,-749.564 225.027,-749.564 220.124,-748.585 225.908,-745.151 215.22,-747.606 215.22,-747.606"/>
<polygon fill="#4a6468" stroke="#4a6468" points="236.308,-84.3288 246.976,-86.8665 241.219,-83.3879 246.13,-82.4469 246.13,-82.4469 246.13,-82.4469 241.219,-83.3879 245.283,-78.0273 236.308,-84.3288 236.308,-84.3288"/>
</g>
<!-- Classroom&#45;&gt;Assignment -->
<g id="edge6" class="edge"><title>Classroom&#45;&gt;Assignment</title>
<path fill="none" stroke="#1c82f7" d="M215.527,-736.681C161.922,-716.864 99.6877,-681.036 99.6877,-621.5 99.6877,-621.5 99.6877,-621.5 99.6877,-222.5 99.6877,-153.69 172.806,-114.789 236.589,-93.9442"/>
<polygon fill="#1c82f7" stroke="#1c82f7" points="215.653,-736.725 223.565,-744.318 220.364,-738.402 225.074,-740.079 225.074,-740.079 225.074,-740.079 220.364,-738.402 226.583,-735.839 215.653,-736.725 215.653,-736.725"/>
<polygon fill="#1c82f7" stroke="#1c82f7" points="236.79,-93.8811 247.68,-95.1671 241.558,-92.3782 246.327,-90.8752 246.327,-90.8752 246.327,-90.8752 241.558,-92.3782 244.975,-86.5833 236.79,-93.8811 236.79,-93.8811"/>
<text text-anchor="middle" x="160.729" y="-350.3" font-family="Times,serif" font-size="14.00">returned_assignments</text>
</g>
<!-- Classroom&#45;&gt;BookBag -->
<g id="edge2" class="edge"><title>Classroom&#45;&gt;BookBag</title>
<path fill="none" stroke="#cdf6be" d="M252.285,-701.68C247.045,-694.256 241.663,-686.632 236.402,-679.178"/>
<ellipse fill="none" stroke="#cdf6be" cx="254.723" cy="-705.133" rx="4.00002" ry="4.00002"/>
<polygon fill="#cdf6be" stroke="#cdf6be" points="236.062,-678.697 233.971,-667.932 233.179,-674.612 230.295,-670.527 230.295,-670.527 230.295,-670.527 233.179,-674.612 226.619,-673.122 236.062,-678.697 236.062,-678.697"/>
</g>
<!-- InventoryState -->
<g id="node5" class="node"><title>InventoryState</title>
<path fill="none" stroke="black" d="M275.182,-180.5C275.182,-180.5 384.193,-180.5 384.193,-180.5 390.193,-180.5 396.193,-186.5 396.193,-192.5 396.193,-192.5 396.193,-254.5 396.193,-254.5 396.193,-260.5 390.193,-266.5 384.193,-266.5 384.193,-266.5 275.182,-266.5 275.182,-266.5 269.182,-266.5 263.182,-260.5 263.182,-254.5 263.182,-254.5 263.182,-192.5 263.182,-192.5 263.182,-186.5 269.182,-180.5 275.182,-180.5"/>
<text text-anchor="middle" x="329.688" y="-251.3" font-family="Times,serif" font-size="14.00">InventoryState</text>
<polyline fill="none" stroke="black" points="263.182,-244.5 396.193,-244.5 "/>
<text text-anchor="start" x="271.182" y="-229.3" font-family="Times,serif" font-size="14.00">id :integer</text>
<text text-anchor="start" x="271.182" y="-215.3" font-family="Times,serif" font-size="14.00">created_at :datetime</text>
<text text-anchor="start" x="271.182" y="-201.3" font-family="Times,serif" font-size="14.00">updated_at :datetime</text>
<text text-anchor="start" x="271.182" y="-187.3" font-family="Times,serif" font-size="14.00">period_id :integer</text>
</g>
<!-- Classroom&#45;&gt;InventoryState -->
<g id="edge5" class="edge"><title>Classroom&#45;&gt;InventoryState</title>
<path fill="none" stroke="#95e544" d="M295.917,-698.185C303.394,-593.299 318.832,-376.768 325.947,-276.971"/>
<polygon fill="#95e544" stroke="#95e544" points="295.906,-698.337 290.706,-707.992 295.55,-703.325 295.195,-708.312 295.195,-708.312 295.195,-708.312 295.55,-703.325 299.683,-708.632 295.906,-698.337 295.906,-698.337"/>
<polygon fill="#95e544" stroke="#95e544" points="325.959,-276.8 331.159,-267.145 326.315,-271.812 326.67,-266.825 326.67,-266.825 326.67,-266.825 326.315,-271.812 322.182,-266.505 325.959,-276.8 325.959,-276.8"/>
</g>
<!-- Period -->
<g id="node6" class="node"><title>Period</title>
<path fill="none" stroke="black" d="M332.182,-577.5C332.182,-577.5 441.193,-577.5 441.193,-577.5 447.193,-577.5 453.193,-583.5 453.193,-589.5 453.193,-589.5 453.193,-651.5 453.193,-651.5 453.193,-657.5 447.193,-663.5 441.193,-663.5 441.193,-663.5 332.182,-663.5 332.182,-663.5 326.182,-663.5 320.182,-657.5 320.182,-651.5 320.182,-651.5 320.182,-589.5 320.182,-589.5 320.182,-583.5 326.182,-577.5 332.182,-577.5"/>
<text text-anchor="middle" x="386.688" y="-648.3" font-family="Times,serif" font-size="14.00">Period</text>
<polyline fill="none" stroke="black" points="320.182,-641.5 453.193,-641.5 "/>
<text text-anchor="start" x="328.182" y="-626.3" font-family="Times,serif" font-size="14.00">id :integer</text>
<text text-anchor="start" x="328.182" y="-612.3" font-family="Times,serif" font-size="14.00">created_at :datetime</text>
<text text-anchor="start" x="328.182" y="-598.3" font-family="Times,serif" font-size="14.00">updated_at :datetime</text>
<text text-anchor="start" x="328.182" y="-584.3" font-family="Times,serif" font-size="14.00">name :string</text>
</g>
<!-- Classroom&#45;&gt;Period -->
<g id="edge7" class="edge"><title>Classroom&#45;&gt;Period</title>
<path fill="none" stroke="#bd7f7c" d="M331.804,-700.07C338.312,-690.753 345.01,-681.165 351.392,-672.029"/>
<polygon fill="#bd7f7c" stroke="#bd7f7c" points="331.711,-700.203 322.296,-705.824 328.848,-704.302 325.985,-708.401 325.985,-708.401 325.985,-708.401 328.848,-704.302 329.674,-710.978 331.711,-700.203 331.711,-700.203"/>
<polygon fill="#bd7f7c" stroke="#bd7f7c" points="351.423,-671.984 360.839,-666.363 354.287,-667.885 357.15,-663.786 357.15,-663.786 357.15,-663.786 354.287,-667.885 353.461,-661.209 351.423,-671.984 351.423,-671.984"/>
</g>
<!-- Plan -->
<g id="node7" class="node"><title>Plan</title>
<path fill="none" stroke="black" d="M369.231,-304.5C369.231,-304.5 482.145,-304.5 482.145,-304.5 488.145,-304.5 494.145,-310.5 494.145,-316.5 494.145,-316.5 494.145,-392.5 494.145,-392.5 494.145,-398.5 488.145,-404.5 482.145,-404.5 482.145,-404.5 369.231,-404.5 369.231,-404.5 363.231,-404.5 357.231,-398.5 357.231,-392.5 357.231,-392.5 357.231,-316.5 357.231,-316.5 357.231,-310.5 363.231,-304.5 369.231,-304.5"/>
<text text-anchor="middle" x="425.688" y="-389.3" font-family="Times,serif" font-size="14.00">Plan</text>
<polyline fill="none" stroke="black" points="357.231,-382.5 494.145,-382.5 "/>
<text text-anchor="start" x="365.231" y="-367.3" font-family="Times,serif" font-size="14.00">id :integer</text>
<text text-anchor="start" x="365.231" y="-353.3" font-family="Times,serif" font-size="14.00">classroom_id :integer</text>
<text text-anchor="start" x="365.231" y="-339.3" font-family="Times,serif" font-size="14.00">created_at :datetime</text>
<text text-anchor="start" x="365.231" y="-325.3" font-family="Times,serif" font-size="14.00">updated_at :datetime</text>
<text text-anchor="start" x="365.231" y="-311.3" font-family="Times,serif" font-size="14.00">period_id :integer</text>
</g>
<!-- Classroom&#45;&gt;Plan -->
<g id="edge3" class="edge"><title>Classroom&#45;&gt;Plan</title>
<path fill="none" stroke="#e81457" d="M365.868,-739.58C401.705,-726.785 441.458,-705.53 462.688,-671 511.072,-592.302 480.295,-481.509 453.237,-414.319"/>
<ellipse fill="none" stroke="#e81457" cx="362.071" cy="-740.884" rx="4.00001" ry="4.00001"/>
<polygon fill="#e81457" stroke="#e81457" points="453.095,-413.975 453.441,-403.015 451.188,-409.353 449.281,-404.731 449.281,-404.731 449.281,-404.731 451.188,-409.353 445.121,-406.447 453.095,-413.975 453.095,-413.975"/>
</g>
<!-- Student -->
<g id="node9" class="node"><title>Student</title>
<path fill="none" stroke="black" d="M508.231,-423.5C508.231,-423.5 621.145,-423.5 621.145,-423.5 627.145,-423.5 633.145,-429.5 633.145,-435.5 633.145,-435.5 633.145,-539.5 633.145,-539.5 633.145,-545.5 627.145,-551.5 621.145,-551.5 621.145,-551.5 508.231,-551.5 508.231,-551.5 502.231,-551.5 496.231,-545.5 496.231,-539.5 496.231,-539.5 496.231,-435.5 496.231,-435.5 496.231,-429.5 502.231,-423.5 508.231,-423.5"/>
<text text-anchor="middle" x="564.688" y="-536.3" font-family="Times,serif" font-size="14.00">Student</text>
<polyline fill="none" stroke="black" points="496.231,-529.5 633.145,-529.5 "/>
<text text-anchor="start" x="504.231" y="-514.3" font-family="Times,serif" font-size="14.00">id :integer</text>
<text text-anchor="start" x="504.231" y="-500.3" font-family="Times,serif" font-size="14.00">classroom_id :integer</text>
<text text-anchor="start" x="504.231" y="-486.3" font-family="Times,serif" font-size="14.00">created_at :datetime</text>
<text text-anchor="start" x="504.231" y="-472.3" font-family="Times,serif" font-size="14.00">updated_at :datetime</text>
<text text-anchor="start" x="504.231" y="-458.3" font-family="Times,serif" font-size="14.00">first_name :string</text>
<text text-anchor="start" x="504.231" y="-444.3" font-family="Times,serif" font-size="14.00">last_name :string</text>
<text text-anchor="start" x="504.231" y="-430.3" font-family="Times,serif" font-size="14.00">inactive :boolean</text>
</g>
<!-- Classroom&#45;&gt;Student -->
<g id="edge1" class="edge"><title>Classroom&#45;&gt;Student</title>
<path fill="none" stroke="#bccd19" d="M366.332,-749.317C409.219,-740.965 461.241,-724.091 495.688,-690 529.995,-656.047 547.255,-604.329 555.934,-561.791"/>
<ellipse fill="none" stroke="#bccd19" cx="362.369" cy="-750.05" rx="4.00001" ry="4.00001"/>
<polygon fill="#bccd19" stroke="#bccd19" points="555.976,-561.572 562.279,-552.599 556.918,-556.662 557.86,-551.751 557.86,-551.751 557.86,-551.751 556.918,-556.662 553.44,-550.904 555.976,-561.572 555.976,-561.572"/>
</g>
<!-- InventoryState&#45;&gt;Assignment -->
<g id="edge8" class="edge"><title>InventoryState&#45;&gt;Assignment</title>
<path fill="none" stroke="#ebeab3" d="M329.688,-172.18C329.688,-165.976 329.688,-159.519 329.688,-153.007"/>
<ellipse fill="none" stroke="#ebeab3" cx="329.688" cy="-176.317" rx="4" ry="4"/>
<polygon fill="#ebeab3" stroke="#ebeab3" points="329.688,-152.756 334.188,-142.755 329.688,-147.756 329.688,-142.756 329.688,-142.756 329.688,-142.756 329.688,-147.756 325.188,-142.756 329.688,-152.756 329.688,-152.756"/>
</g>
<!-- Period&#45;&gt;InventoryState -->
<g id="edge10" class="edge"><title>Period&#45;&gt;InventoryState</title>
<path fill="none" stroke="#822a11" d="M376.743,-569.197C368.417,-525.829 356.651,-461.466 348.688,-405 342.49,-361.054 337.361,-310.827 334,-274.533"/>
<ellipse fill="none" stroke="#822a11" cx="377.55" cy="-573.385" rx="4.00001" ry="4.00001"/>
<ellipse fill="#822a11" stroke="#822a11" cx="333.633" cy="-270.529" rx="4" ry="4"/>
</g>
<!-- Period&#45;&gt;Plan -->
<g id="edge9" class="edge"><title>Period&#45;&gt;Plan</title>
<path fill="none" stroke="#e0d151" d="M394.087,-569.411C400.677,-524.801 410.317,-459.551 417.214,-412.86"/>
<ellipse fill="none" stroke="#e0d151" cx="393.495" cy="-573.419" rx="4.00001" ry="4.00001"/>
<ellipse fill="#e0d151" stroke="#e0d151" cx="417.841" cy="-408.616" rx="4.00001" ry="4.00001"/>
</g>
<!-- Plan&#45;&gt;Assignment -->
<g id="edge11" class="edge"><title>Plan&#45;&gt;Assignment</title>
<path fill="none" stroke="#9cb983" d="M426.182,-296.336C424.774,-261.664 419.869,-217.102 405.688,-180 401.977,-170.292 397.188,-160.642 391.819,-151.335"/>
<ellipse fill="none" stroke="#9cb983" cx="426.322" cy="-300.477" rx="4" ry="4"/>
<polygon fill="#9cb983" stroke="#9cb983" points="391.672,-151.091 390.364,-140.203 389.091,-146.808 386.51,-142.526 386.51,-142.526 386.51,-142.526 389.091,-146.808 382.656,-144.848 391.672,-151.091 391.672,-151.091"/>
</g>
<!-- Plan&#45;&gt;InventoryState -->
<g id="edge12" class="edge"><title>Plan&#45;&gt;InventoryState</title>
<path fill="none" stroke="#467b57" d="M384.321,-297.913C378.251,-289.757 372.037,-281.407 366.077,-273.398"/>
<ellipse fill="none" stroke="#467b57" cx="386.732" cy="-301.154" rx="4.00002" ry="4.00002"/>
<ellipse fill="#467b57" stroke="#467b57" cx="363.527" cy="-269.972" rx="4.00002" ry="4.00002"/>
</g>
<!-- School -->
<g id="node8" class="node"><title>School</title>
<path fill="none" stroke="black" d="M237.182,-846.5C237.182,-846.5 346.193,-846.5 346.193,-846.5 352.193,-846.5 358.193,-852.5 358.193,-858.5 358.193,-858.5 358.193,-920.5 358.193,-920.5 358.193,-926.5 352.193,-932.5 346.193,-932.5 346.193,-932.5 237.182,-932.5 237.182,-932.5 231.182,-932.5 225.182,-926.5 225.182,-920.5 225.182,-920.5 225.182,-858.5 225.182,-858.5 225.182,-852.5 231.182,-846.5 237.182,-846.5"/>
<text text-anchor="middle" x="291.688" y="-917.3" font-family="Times,serif" font-size="14.00">School</text>
<polyline fill="none" stroke="black" points="225.182,-910.5 358.193,-910.5 "/>
<text text-anchor="start" x="233.182" y="-895.3" font-family="Times,serif" font-size="14.00">id :integer</text>
<text text-anchor="start" x="233.182" y="-881.3" font-family="Times,serif" font-size="14.00">name :string</text>
<text text-anchor="start" x="233.182" y="-867.3" font-family="Times,serif" font-size="14.00">created_at :datetime</text>
<text text-anchor="start" x="233.182" y="-853.3" font-family="Times,serif" font-size="14.00">updated_at :datetime</text>
</g>
<!-- School&#45;&gt;Classroom -->
<g id="edge13" class="edge"><title>School&#45;&gt;Classroom</title>
<path fill="none" stroke="#1dea01" d="M291.688,-838.204C291.688,-831.809 291.688,-825.219 291.688,-818.701"/>
<ellipse fill="none" stroke="#1dea01" cx="291.688" cy="-842.261" rx="4" ry="4"/>
<polygon fill="#1dea01" stroke="#1dea01" points="291.688,-818.557 296.188,-808.557 291.688,-813.557 291.688,-808.557 291.688,-808.557 291.688,-808.557 291.688,-813.557 287.188,-808.557 291.688,-818.557 291.688,-818.557"/>
</g>
<!-- Student&#45;&gt;Assignment -->
<g id="edge14" class="edge"><title>Student&#45;&gt;Assignment</title>
<path fill="none" stroke="#07dc51" d="M544.39,-415.482C533.617,-381.143 519.192,-339.726 502.688,-304 475.772,-245.738 467.074,-231.433 428.688,-180 421.324,-170.133 413.194,-160.144 404.854,-150.434"/>
<ellipse fill="none" stroke="#07dc51" cx="545.584" cy="-419.326" rx="4.00001" ry="4.00001"/>
<polygon fill="#07dc51" stroke="#07dc51" points="404.698,-150.255 401.524,-139.758 401.414,-146.484 398.13,-142.714 398.13,-142.714 398.13,-142.714 401.414,-146.484 394.737,-145.669 404.698,-150.255 404.698,-150.255"/>
</g>
</g>
</svg>
